<?xml version="1.0" encoding="utf-8"?>
<!-- Generator: Adobe Illustrator 24.1.2, SVG Export Plug-In . SVG Version: 6.00 Build 0)  -->
<svg version="1.1" id="레이어_1" xmlns="http://www.w3.org/2000/svg" xmlns:xlink="http://www.w3.org/1999/xlink" x="0px"
	 y="0px" viewBox="0 0 45 45" style="enable-background:new 0 0 45 45;" xml:space="preserve">
<style type="text/css">
	.st0{fill:#FFFFFF;}
</style>
<path class="st0" d="M22.8,12.9c-1.8,0-4.5-2-7.4-1.9c-3.8,0-7.3,2.2-9.3,5.6c-4,6.9-1,17.1,2.8,22.7C10.8,42,13,45.1,16,45
	c2.8-0.1,3.9-1.9,7.4-1.9c3.4,0,4.4,1.9,7.4,1.8c3.1,0,5-2.8,6.9-5.5c2.2-3.2,3.1-6.2,3.1-6.4c-0.1,0-6-2.3-6-9.1
	c0-5.7,4.7-8.4,4.9-8.5c-2.7-3.9-6.8-4.4-8.2-4.5C27.7,10.6,24.5,12.9,22.8,12.9z M29.1,7.2c1.6-1.9,2.6-4.6,2.3-7.2
	c-2.3,0.1-5,1.5-6.6,3.4c-1.5,1.7-2.7,4.4-2.4,7C25,10.6,27.5,9.1,29.1,7.2"/>
</svg>
