<?xml version="1.0" encoding="utf-8"?>
<!-- Generator: Adobe Illustrator 24.1.2, SVG Export Plug-In . SVG Version: 6.00 Build 0)  -->
<svg version="1.1" id="Слой_1" xmlns="http://www.w3.org/2000/svg" xmlns:xlink="http://www.w3.org/1999/xlink" x="0px" y="0px"
	 viewBox="0 0 78.2 154.6" style="enable-background:new 0 0 78.2 154.6;" xml:space="preserve">
<style type="text/css">
	.st0{fill:#FFFFFF;}
</style>
<g>
	<path class="st0" d="M3.6,33.3L29,71.5c2.4,3.6,2.4,8.2,0,11.7L3.6,121.3c-9.5,14.3,0.7,33.3,17.8,33.3l0,0
		c7.2,0,13.9-3.6,17.8-9.5l33.6-50.4c7-10.5,7-24.3,0-34.8L39.3,9.5c-4-6-10.7-9.5-17.8-9.5l0,0C4.4,0-5.9,19.1,3.6,33.3z"/>
</g>
<g>
	<path class="st0" d="M-76.4,121.3l-25.4-38.1c-2.4-3.6-2.4-8.2,0-11.7l25.4-38.1C-66.9,19.1-77.1,0-94.2,0l0,0
		c-7.2,0-13.9,3.6-17.8,9.5l-33.6,50.4c-7,10.5-7,24.3,0,34.8l33.6,50.4c4,6,10.7,9.5,17.8,9.5l0,0
		C-77.1,154.6-66.9,135.6-76.4,121.3z"/>
</g>
<polygon points="-1166.7,-2154.2 -1244.9,-2212.8 -1244.9,-2173.7 -1381.7,-2173.7 -1381.7,-2134.7 -1244.9,-2134.7 
	-1244.9,-2095.6 "/>
<g>
	<g>
		<rect x="-1767.2" y="-1892.4" width="115.7" height="66.1"/>
	</g>
	<g>
		<polygon points="-1684.5,-1760.2 -1684.5,-1958.5 -1552.3,-1859.3 		"/>
	</g>
</g>
<g>
	<polygon points="-2882.4,-2971 -2882.4,-3169.4 -2750.1,-3070.2 	"/>
</g>
<g>
	<g>
		<polygon points="-1349.7,-1802.7 -1274.2,-1859.3 -1349.7,-1916 		"/>
	</g>
	<g>
		<polygon points="-1198.7,-1859.3 -1274.2,-1916 -1274.2,-1859.3 -1274.2,-1802.7 		"/>
	</g>
</g>
<g>
	<g>
		<path d="M-2904.6-2709.6c0,7-5.7,12.6-12.6,12.6c-7,0-12.6-5.7-12.6-12.6c0-7,5.7-12.6,12.6-12.6
			C-2910.3-2722.2-2904.6-2716.5-2904.6-2709.6z"/>
	</g>
	<g>
		<path d="M-2904.6-2734.8c0,7-5.7,12.6-12.6,12.6c-7,0-12.6-5.7-12.6-12.6c0-7,5.7-12.6,12.6-12.6
			C-2910.3-2747.5-2904.6-2741.8-2904.6-2734.8z"/>
	</g>
	<g>
		<path d="M-2904.6-2760.1c0,7-5.7,12.6-12.6,12.6c-7,0-12.6-5.7-12.6-12.6s5.7-12.6,12.6-12.6
			C-2910.3-2772.7-2904.6-2767-2904.6-2760.1z"/>
	</g>
	<g>
		<path d="M-2879.4-2709.6c0,7-5.7,12.6-12.6,12.6c-7,0-12.6-5.7-12.6-12.6c0-7,5.7-12.6,12.6-12.6
			C-2885-2722.2-2879.4-2716.5-2879.4-2709.6z"/>
	</g>
	<g>
		<path d="M-2879.4-2734.8c0,7-5.7,12.6-12.6,12.6c-7,0-12.6-5.7-12.6-12.6c0-7,5.7-12.6,12.6-12.6
			C-2885-2747.5-2879.4-2741.8-2879.4-2734.8z"/>
	</g>
	<g>
		<path d="M-2879.4-2760.1c0,7-5.7,12.6-12.6,12.6c-7,0-12.6-5.7-12.6-12.6s5.7-12.6,12.6-12.6
			C-2885-2772.7-2879.4-2767-2879.4-2760.1z"/>
	</g>
	<g>
		<path d="M-2854.1-2709.6c0,7-5.7,12.6-12.6,12.6c-7,0-12.6-5.7-12.6-12.6c0-7,5.7-12.6,12.6-12.6
			C-2859.8-2722.2-2854.1-2716.5-2854.1-2709.6z"/>
	</g>
	<g>
		<path d="M-2854.1-2734.8c0,7-5.7,12.6-12.6,12.6c-7,0-12.6-5.7-12.6-12.6c0-7,5.7-12.6,12.6-12.6
			C-2859.8-2747.5-2854.1-2741.8-2854.1-2734.8z"/>
	</g>
	<g>
		<path d="M-2854.1-2760.1c0,7-5.7,12.6-12.6,12.6c-7,0-12.6-5.7-12.6-12.6s5.7-12.6,12.6-12.6
			C-2859.8-2772.7-2854.1-2767-2854.1-2760.1z"/>
	</g>
	<g>
		<path d="M-2828.9-2709.6c0,7-5.7,12.6-12.6,12.6c-7,0-12.6-5.7-12.6-12.6c0-7,5.7-12.6,12.6-12.6
			C-2834.5-2722.2-2828.9-2716.5-2828.9-2709.6z"/>
	</g>
	<g>
		<path d="M-2828.9-2734.8c0,7-5.7,12.6-12.6,12.6c-7,0-12.6-5.7-12.6-12.6c0-7,5.7-12.6,12.6-12.6
			C-2834.5-2747.5-2828.9-2741.8-2828.9-2734.8z"/>
	</g>
	<g>
		<path d="M-2828.9-2760.1c0,7-5.7,12.6-12.6,12.6c-7,0-12.6-5.7-12.6-12.6s5.7-12.6,12.6-12.6
			C-2834.5-2772.7-2828.9-2767-2828.9-2760.1z"/>
	</g>
	<g>
		<path d="M-2803.6-2709.6c0,7-5.7,12.6-12.6,12.6s-12.6-5.7-12.6-12.6c0-7,5.7-12.6,12.6-12.6S-2803.6-2716.5-2803.6-2709.6z"/>
	</g>
	<g>
		<path d="M-2803.6-2734.8c0,7-5.7,12.6-12.6,12.6s-12.6-5.7-12.6-12.6c0-7,5.7-12.6,12.6-12.6S-2803.6-2741.8-2803.6-2734.8z"/>
	</g>
	<g>
		<path d="M-2803.6-2760.1c0,7-5.7,12.6-12.6,12.6s-12.6-5.7-12.6-12.6s5.7-12.6,12.6-12.6S-2803.6-2767-2803.6-2760.1z"/>
	</g>
	<g>
		<path d="M-2778.4-2709.6c0,7-5.7,12.6-12.6,12.6c-7,0-12.6-5.7-12.6-12.6c0-7,5.7-12.6,12.6-12.6
			C-2784-2722.2-2778.4-2716.5-2778.4-2709.6z"/>
	</g>
	<g>
		<path d="M-2778.4-2684.3c0,7-5.7,12.6-12.6,12.6c-7,0-12.6-5.7-12.6-12.6c0-7,5.7-12.6,12.6-12.6
			C-2784-2697-2778.4-2691.3-2778.4-2684.3z"/>
	</g>
	<g>
		<path d="M-2753.1-2684.3c0,7-5.7,12.6-12.6,12.6s-12.6-5.7-12.6-12.6c0-7,5.7-12.6,12.6-12.6S-2753.1-2691.3-2753.1-2684.3z"/>
	</g>
	<g>
		<path d="M-2778.4-2659.1c0,7-5.7,12.6-12.6,12.6c-7,0-12.6-5.7-12.6-12.6c0-7,5.7-12.6,12.6-12.6
			C-2784-2671.7-2778.4-2666.1-2778.4-2659.1z"/>
	</g>
	<g>
		<path d="M-2778.4-2810.6c0,7-5.7,12.6-12.6,12.6c-7,0-12.6-5.7-12.6-12.6c0-7,5.7-12.6,12.6-12.6
			C-2784-2823.2-2778.4-2817.5-2778.4-2810.6z"/>
	</g>
	<g>
		<path d="M-2778.4-2734.8c0,7-5.7,12.6-12.6,12.6c-7,0-12.6-5.7-12.6-12.6c0-7,5.7-12.6,12.6-12.6
			C-2784-2747.5-2778.4-2741.8-2778.4-2734.8z"/>
	</g>
	<g>
		<path d="M-2753.1-2734.8c0,7-5.7,12.6-12.6,12.6s-12.6-5.7-12.6-12.6c0-7,5.7-12.6,12.6-12.6S-2753.1-2741.8-2753.1-2734.8z"/>
	</g>
	<g>
		<path d="M-2753.1-2709.6c0,7-5.7,12.6-12.6,12.6s-12.6-5.7-12.6-12.6c0-7,5.7-12.6,12.6-12.6S-2753.1-2716.5-2753.1-2709.6z"/>
	</g>
	<g>
		<path d="M-2778.4-2760.1c0,7-5.7,12.6-12.6,12.6c-7,0-12.6-5.7-12.6-12.6s5.7-12.6,12.6-12.6
			C-2784-2772.7-2778.4-2767-2778.4-2760.1z"/>
	</g>
	<g>
		<path d="M-2753.1-2760.1c0,7-5.7,12.6-12.6,12.6s-12.6-5.7-12.6-12.6s5.7-12.6,12.6-12.6S-2753.1-2767-2753.1-2760.1z"/>
	</g>
	<g>
		<path d="M-2778.4-2785.3c0,7-5.7,12.6-12.6,12.6c-7,0-12.6-5.7-12.6-12.6c0-7,5.7-12.6,12.6-12.6
			C-2784-2797.9-2778.4-2792.3-2778.4-2785.3z"/>
	</g>
	<g>
		<path d="M-2753.1-2785.3c0,7-5.7,12.6-12.6,12.6s-12.6-5.7-12.6-12.6c0-7,5.7-12.6,12.6-12.6S-2753.1-2792.3-2753.1-2785.3z"/>
	</g>
	<g>
		<path d="M-2727.9-2734.8c0,7-5.7,12.6-12.6,12.6c-7,0-12.6-5.7-12.6-12.6c0-7,5.7-12.6,12.6-12.6
			C-2733.5-2747.5-2727.9-2741.8-2727.9-2734.8z"/>
	</g>
	<g>
		<path d="M-2727.9-2709.6c0,7-5.7,12.6-12.6,12.6c-7,0-12.6-5.7-12.6-12.6c0-7,5.7-12.6,12.6-12.6
			C-2733.5-2722.2-2727.9-2716.5-2727.9-2709.6z"/>
	</g>
	<g>
		<path d="M-2702.6-2734.8c0,7-5.7,12.6-12.6,12.6c-7,0-12.6-5.7-12.6-12.6c0-7,5.7-12.6,12.6-12.6
			C-2708.3-2747.5-2702.6-2741.8-2702.6-2734.8z"/>
	</g>
	<g>
		<path d="M-2727.9-2760.1c0,7-5.7,12.6-12.6,12.6c-7,0-12.6-5.7-12.6-12.6s5.7-12.6,12.6-12.6
			C-2733.5-2772.7-2727.9-2767-2727.9-2760.1z"/>
	</g>
</g>
<g>
	<g>
		<path d="M-2536-2729.5c0,5.8-4.7,10.5-10.5,10.5c-5.8,0-10.5-4.7-10.5-10.5c0-5.8,4.7-10.5,10.5-10.5
			C-2540.7-2740.1-2536-2735.3-2536-2729.5z"/>
	</g>
	<g>
		<path d="M-2536-2703.7c0,5.8-4.7,10.5-10.5,10.5c-5.8,0-10.5-4.7-10.5-10.5c0-5.8,4.7-10.5,10.5-10.5
			C-2540.7-2714.3-2536-2709.6-2536-2703.7z"/>
	</g>
	<g>
		<path d="M-2510.2-2701.4c0,5.8-4.7,10.5-10.5,10.5c-5.8,0-10.5-4.7-10.5-10.5c0-5.8,4.7-10.5,10.5-10.5
			C-2514.9-2711.9-2510.2-2707.2-2510.2-2701.4z"/>
	</g>
	<g>
		<path d="M-2536-2678c0,5.8-4.7,10.5-10.5,10.5c-5.8,0-10.5-4.7-10.5-10.5c0-5.8,4.7-10.5,10.5-10.5
			C-2540.7-2688.5-2536-2683.8-2536-2678z"/>
	</g>
	<g>
		<path d="M-2536-2832.6c0,5.8-4.7,10.5-10.5,10.5c-5.8,0-10.5-4.7-10.5-10.5c0-5.8,4.7-10.5,10.5-10.5
			C-2540.7-2843.2-2536-2838.5-2536-2832.6z"/>
	</g>
	<g>
		<path d="M-2536-2755.3c0,5.8-4.7,10.5-10.5,10.5c-5.8,0-10.5-4.7-10.5-10.5c0-5.8,4.7-10.5,10.5-10.5
			C-2540.7-2765.8-2536-2761.1-2536-2755.3z"/>
	</g>
	<g>
		<path d="M-2510.2-2754.1c0,5.8-4.7,10.5-10.5,10.5c-5.8,0-10.5-4.7-10.5-10.5c0-5.8,4.7-10.5,10.5-10.5
			C-2514.9-2764.7-2510.2-2759.9-2510.2-2754.1z"/>
	</g>
	<g>
		<path d="M-2510.2-2727.8c0,5.8-4.7,10.5-10.5,10.5c-5.8,0-10.5-4.7-10.5-10.5c0-5.8,4.7-10.5,10.5-10.5
			C-2514.9-2738.3-2510.2-2733.6-2510.2-2727.8z"/>
	</g>
	<g>
		<path d="M-2536-2781.1c0,5.8-4.7,10.5-10.5,10.5c-5.8,0-10.5-4.7-10.5-10.5c0-5.8,4.7-10.5,10.5-10.5
			C-2540.7-2791.6-2536-2786.9-2536-2781.1z"/>
	</g>
	<g>
		<path d="M-2510.2-2780.5c0,5.8-4.7,10.5-10.5,10.5c-5.8,0-10.5-4.7-10.5-10.5c0-5.8,4.7-10.5,10.5-10.5
			C-2514.9-2791-2510.2-2786.3-2510.2-2780.5z"/>
	</g>
	<g>
		<path d="M-2536-2806.8c0,5.8-4.7,10.5-10.5,10.5c-5.8,0-10.5-4.7-10.5-10.5c0-5.8,4.7-10.5,10.5-10.5
			C-2540.7-2817.4-2536-2812.7-2536-2806.8z"/>
	</g>
	<g>
		<path d="M-2510.2-2806.8c0,5.8-4.7,10.5-10.5,10.5c-5.8,0-10.5-4.7-10.5-10.5c0-5.8,4.7-10.5,10.5-10.5
			C-2514.9-2817.4-2510.2-2812.7-2510.2-2806.8z"/>
	</g>
	<g>
		<path d="M-2484.4-2755.3c0,5.8-4.7,10.5-10.5,10.5c-5.8,0-10.5-4.7-10.5-10.5c0-5.8,4.7-10.5,10.5-10.5
			C-2489.1-2765.8-2484.4-2761.1-2484.4-2755.3z"/>
	</g>
	<g>
		<path d="M-2484.4-2729.5c0,5.8-4.7,10.5-10.5,10.5c-5.8,0-10.5-4.7-10.5-10.5c0-5.8,4.7-10.5,10.5-10.5
			C-2489.1-2740.1-2484.4-2735.3-2484.4-2729.5z"/>
	</g>
	<g>
		<path d="M-2458.6-2755.3c0,5.8-4.7,10.5-10.5,10.5c-5.8,0-10.5-4.7-10.5-10.5c0-5.8,4.7-10.5,10.5-10.5
			C-2463.4-2765.8-2458.6-2761.1-2458.6-2755.3z"/>
	</g>
	<g>
		<path d="M-2484.4-2781.1c0,5.8-4.7,10.5-10.5,10.5c-5.8,0-10.5-4.7-10.5-10.5c0-5.8,4.7-10.5,10.5-10.5
			C-2489.1-2791.6-2484.4-2786.9-2484.4-2781.1z"/>
	</g>
</g>
<g>
	<g>
		<g>
			<path d="M-1257.9-2441c0,4-3.3,7.3-7.3,7.3s-7.3-3.3-7.3-7.3c0-4,3.3-7.3,7.3-7.3S-1257.9-2445-1257.9-2441z"/>
		</g>
		<g>
			<path d="M-1257.9-2423.1c0,4-3.3,7.3-7.3,7.3s-7.3-3.3-7.3-7.3s3.3-7.3,7.3-7.3S-1257.9-2427.2-1257.9-2423.1z"/>
		</g>
		<g>
			<path d="M-1240-2421.5c0,4-3.3,7.3-7.3,7.3c-4,0-7.3-3.3-7.3-7.3c0-4,3.3-7.3,7.3-7.3C-1243.3-2428.8-1240-2425.5-1240-2421.5z"
				/>
		</g>
		<g>
			<path d="M-1257.9-2405.2c0,4-3.3,7.3-7.3,7.3s-7.3-3.3-7.3-7.3c0-4,3.3-7.3,7.3-7.3S-1257.9-2409.3-1257.9-2405.2z"/>
		</g>
		<g>
			<path d="M-1257.9-2512.5c0,4-3.3,7.3-7.3,7.3s-7.3-3.3-7.3-7.3s3.3-7.3,7.3-7.3S-1257.9-2516.5-1257.9-2512.5z"/>
		</g>
		<g>
			<path d="M-1257.9-2458.9c0,4-3.3,7.3-7.3,7.3s-7.3-3.3-7.3-7.3c0-4,3.3-7.3,7.3-7.3S-1257.9-2462.9-1257.9-2458.9z"/>
		</g>
		<g>
			<path d="M-1240-2458c0,4-3.3,7.3-7.3,7.3c-4,0-7.3-3.3-7.3-7.3s3.3-7.3,7.3-7.3C-1243.3-2465.4-1240-2462.1-1240-2458z"/>
		</g>
		<g>
			<path d="M-1240-2439.8c0,4-3.3,7.3-7.3,7.3c-4,0-7.3-3.3-7.3-7.3c0-4,3.3-7.3,7.3-7.3C-1243.3-2447.1-1240-2443.8-1240-2439.8z"
				/>
		</g>
		<g>
			<path d="M-1257.9-2476.7c0,4-3.3,7.3-7.3,7.3s-7.3-3.3-7.3-7.3c0-4,3.3-7.3,7.3-7.3S-1257.9-2480.8-1257.9-2476.7z"/>
		</g>
		<g>
			<path d="M-1240-2476.3c0,4-3.3,7.3-7.3,7.3c-4,0-7.3-3.3-7.3-7.3c0-4,3.3-7.3,7.3-7.3C-1243.3-2483.6-1240-2480.4-1240-2476.3z"
				/>
		</g>
		<g>
			<path d="M-1257.9-2494.6c0,4-3.3,7.3-7.3,7.3s-7.3-3.3-7.3-7.3s3.3-7.3,7.3-7.3S-1257.9-2498.6-1257.9-2494.6z"/>
		</g>
		<g>
			<path d="M-1240-2494.6c0,4-3.3,7.3-7.3,7.3c-4,0-7.3-3.3-7.3-7.3s3.3-7.3,7.3-7.3C-1243.3-2501.9-1240-2498.6-1240-2494.6z"/>
		</g>
		<g>
			<path d="M-1222.2-2458.9c0,4-3.3,7.3-7.3,7.3c-4,0-7.3-3.3-7.3-7.3c0-4,3.3-7.3,7.3-7.3
				C-1225.4-2466.2-1222.2-2462.9-1222.2-2458.9z"/>
		</g>
		<g>
			<path d="M-1222.2-2441c0,4-3.3,7.3-7.3,7.3c-4,0-7.3-3.3-7.3-7.3c0-4,3.3-7.3,7.3-7.3C-1225.4-2448.3-1222.2-2445-1222.2-2441z"
				/>
		</g>
		<g>
			<path d="M-1204.3-2458.9c0,4-3.3,7.3-7.3,7.3c-4,0-7.3-3.3-7.3-7.3c0-4,3.3-7.3,7.3-7.3
				C-1207.6-2466.2-1204.3-2462.9-1204.3-2458.9z"/>
		</g>
		<g>
			<path d="M-1222.2-2476.7c0,4-3.3,7.3-7.3,7.3c-4,0-7.3-3.3-7.3-7.3c0-4,3.3-7.3,7.3-7.3
				C-1225.4-2484-1222.2-2480.8-1222.2-2476.7z"/>
		</g>
	</g>
	<g>
		<g>
			<path d="M-1329.5-2441c0,4-3.3,7.3-7.3,7.3c-4,0-7.3-3.3-7.3-7.3c0-4,3.3-7.3,7.3-7.3C-1332.8-2448.3-1329.5-2445-1329.5-2441z"
				/>
		</g>
		<g>
			<path d="M-1329.5-2423.1c0,4-3.3,7.3-7.3,7.3c-4,0-7.3-3.3-7.3-7.3s3.3-7.3,7.3-7.3C-1332.8-2430.4-1329.5-2427.2-1329.5-2423.1z
				"/>
		</g>
		<g>
			<path d="M-1311.6-2421.5c0,4-3.3,7.3-7.3,7.3s-7.3-3.3-7.3-7.3c0-4,3.3-7.3,7.3-7.3S-1311.6-2425.5-1311.6-2421.5z"/>
		</g>
		<g>
			<path d="M-1329.5-2405.2c0,4-3.3,7.3-7.3,7.3c-4,0-7.3-3.3-7.3-7.3c0-4,3.3-7.3,7.3-7.3
				C-1332.8-2412.6-1329.5-2409.3-1329.5-2405.2z"/>
		</g>
		<g>
			<path d="M-1329.5-2512.5c0,4-3.3,7.3-7.3,7.3c-4,0-7.3-3.3-7.3-7.3s3.3-7.3,7.3-7.3C-1332.8-2519.8-1329.5-2516.5-1329.5-2512.5z
				"/>
		</g>
		<g>
			<path d="M-1329.5-2458.9c0,4-3.3,7.3-7.3,7.3c-4,0-7.3-3.3-7.3-7.3c0-4,3.3-7.3,7.3-7.3
				C-1332.8-2466.2-1329.5-2462.9-1329.5-2458.9z"/>
		</g>
		<g>
			<path d="M-1311.6-2458c0,4-3.3,7.3-7.3,7.3s-7.3-3.3-7.3-7.3s3.3-7.3,7.3-7.3S-1311.6-2462.1-1311.6-2458z"/>
		</g>
		<g>
			<path d="M-1311.6-2439.8c0,4-3.3,7.3-7.3,7.3s-7.3-3.3-7.3-7.3c0-4,3.3-7.3,7.3-7.3S-1311.6-2443.8-1311.6-2439.8z"/>
		</g>
		<g>
			<path d="M-1329.5-2476.7c0,4-3.3,7.3-7.3,7.3c-4,0-7.3-3.3-7.3-7.3c0-4,3.3-7.3,7.3-7.3
				C-1332.8-2484-1329.5-2480.8-1329.5-2476.7z"/>
		</g>
		<g>
			<path d="M-1311.6-2476.3c0,4-3.3,7.3-7.3,7.3s-7.3-3.3-7.3-7.3c0-4,3.3-7.3,7.3-7.3S-1311.6-2480.4-1311.6-2476.3z"/>
		</g>
		<g>
			<path d="M-1329.5-2494.6c0,4-3.3,7.3-7.3,7.3c-4,0-7.3-3.3-7.3-7.3s3.3-7.3,7.3-7.3C-1332.8-2501.9-1329.5-2498.6-1329.5-2494.6z
				"/>
		</g>
		<g>
			<path d="M-1311.6-2494.6c0,4-3.3,7.3-7.3,7.3s-7.3-3.3-7.3-7.3s3.3-7.3,7.3-7.3S-1311.6-2498.6-1311.6-2494.6z"/>
		</g>
		<g>
			<path d="M-1293.8-2458.9c0,4-3.3,7.3-7.3,7.3c-4,0-7.3-3.3-7.3-7.3c0-4,3.3-7.3,7.3-7.3
				C-1297-2466.2-1293.8-2462.9-1293.8-2458.9z"/>
		</g>
		<g>
			<path d="M-1293.8-2441c0,4-3.3,7.3-7.3,7.3c-4,0-7.3-3.3-7.3-7.3c0-4,3.3-7.3,7.3-7.3C-1297-2448.3-1293.8-2445-1293.8-2441z"/>
		</g>
		<g>
			<path d="M-1275.9-2458.9c0,4-3.3,7.3-7.3,7.3c-4,0-7.3-3.3-7.3-7.3c0-4,3.3-7.3,7.3-7.3
				C-1279.2-2466.2-1275.9-2462.9-1275.9-2458.9z"/>
		</g>
		<g>
			<path d="M-1293.8-2476.7c0,4-3.3,7.3-7.3,7.3c-4,0-7.3-3.3-7.3-7.3c0-4,3.3-7.3,7.3-7.3C-1297-2484-1293.8-2480.8-1293.8-2476.7z
				"/>
		</g>
	</g>
</g>
<g>
	<g>
		<g>
			<path d="M-2545.6-1839.3c0,4.5-3.7,8.2-8.2,8.2c-4.5,0-8.2-3.7-8.2-8.2c0-4.5,3.7-8.2,8.2-8.2
				C-2549.3-1847.5-2545.6-1843.8-2545.6-1839.3z"/>
		</g>
		<g>
			<path d="M-2545.6-1819.3c0,4.5-3.7,8.2-8.2,8.2c-4.5,0-8.2-3.7-8.2-8.2c0-4.5,3.7-8.2,8.2-8.2
				C-2549.3-1827.5-2545.6-1823.8-2545.6-1819.3z"/>
		</g>
		<g>
			<path d="M-2525.6-1817.4c0,4.5-3.7,8.2-8.2,8.2s-8.2-3.7-8.2-8.2c0-4.5,3.7-8.2,8.2-8.2S-2525.6-1822-2525.6-1817.4z"/>
		</g>
		<g>
			<path d="M-2545.6-1799.2c0,4.5-3.7,8.2-8.2,8.2c-4.5,0-8.2-3.7-8.2-8.2c0-4.5,3.7-8.2,8.2-8.2
				C-2549.3-1807.4-2545.6-1803.8-2545.6-1799.2z"/>
		</g>
		<g>
			<path d="M-2545.6-1919.5c0,4.5-3.7,8.2-8.2,8.2c-4.5,0-8.2-3.7-8.2-8.2c0-4.5,3.7-8.2,8.2-8.2
				C-2549.3-1927.7-2545.6-1924-2545.6-1919.5z"/>
		</g>
		<g>
			<path d="M-2545.6-1859.3c0,4.5-3.7,8.2-8.2,8.2c-4.5,0-8.2-3.7-8.2-8.2c0-4.5,3.7-8.2,8.2-8.2
				C-2549.3-1867.5-2545.6-1863.9-2545.6-1859.3z"/>
		</g>
		<g>
			<path d="M-2525.6-1858.4c0,4.5-3.7,8.2-8.2,8.2s-8.2-3.7-8.2-8.2c0-4.5,3.7-8.2,8.2-8.2S-2525.6-1863-2525.6-1858.4z"/>
		</g>
		<g>
			<path d="M-2525.6-1837.9c0,4.5-3.7,8.2-8.2,8.2s-8.2-3.7-8.2-8.2c0-4.5,3.7-8.2,8.2-8.2S-2525.6-1842.5-2525.6-1837.9z"/>
		</g>
		<g>
			<path d="M-2545.6-1879.4c0,4.5-3.7,8.2-8.2,8.2c-4.5,0-8.2-3.7-8.2-8.2c0-4.5,3.7-8.2,8.2-8.2
				C-2549.3-1887.6-2545.6-1883.9-2545.6-1879.4z"/>
		</g>
		<g>
			<path d="M-2525.6-1878.9c0,4.5-3.7,8.2-8.2,8.2s-8.2-3.7-8.2-8.2c0-4.5,3.7-8.2,8.2-8.2S-2525.6-1883.5-2525.6-1878.9z"/>
		</g>
		<g>
			<path d="M-2545.6-1899.4c0,4.5-3.7,8.2-8.2,8.2c-4.5,0-8.2-3.7-8.2-8.2c0-4.5,3.7-8.2,8.2-8.2
				C-2549.3-1907.6-2545.6-1904-2545.6-1899.4z"/>
		</g>
		<g>
			<path d="M-2525.6-1899.4c0,4.5-3.7,8.2-8.2,8.2s-8.2-3.7-8.2-8.2c0-4.5,3.7-8.2,8.2-8.2S-2525.6-1904-2525.6-1899.4z"/>
		</g>
		<g>
			<path d="M-2505.5-1859.3c0,4.5-3.7,8.2-8.2,8.2c-4.5,0-8.2-3.7-8.2-8.2c0-4.5,3.7-8.2,8.2-8.2
				C-2509.2-1867.5-2505.5-1863.9-2505.5-1859.3z"/>
		</g>
		<g>
			<path d="M-2505.5-1839.3c0,4.5-3.7,8.2-8.2,8.2c-4.5,0-8.2-3.7-8.2-8.2c0-4.5,3.7-8.2,8.2-8.2
				C-2509.2-1847.5-2505.5-1843.8-2505.5-1839.3z"/>
		</g>
		<g>
			<path d="M-2485.5-1859.3c0,4.5-3.7,8.2-8.2,8.2s-8.2-3.7-8.2-8.2c0-4.5,3.7-8.2,8.2-8.2S-2485.5-1863.9-2485.5-1859.3z"/>
		</g>
		<g>
			<path d="M-2505.5-1879.4c0,4.5-3.7,8.2-8.2,8.2c-4.5,0-8.2-3.7-8.2-8.2c0-4.5,3.7-8.2,8.2-8.2
				C-2509.2-1887.6-2505.5-1883.9-2505.5-1879.4z"/>
		</g>
	</g>
	<g>
		<g>
			<path d="M-2359.6-1839.3c0,4.5-3.7,8.2-8.2,8.2s-8.2-3.7-8.2-8.2c0-4.5,3.7-8.2,8.2-8.2S-2359.6-1843.8-2359.6-1839.3z"/>
		</g>
		<g>
			<path d="M-2359.6-1819.3c0,4.5-3.7,8.2-8.2,8.2s-8.2-3.7-8.2-8.2c0-4.5,3.7-8.2,8.2-8.2S-2359.6-1823.8-2359.6-1819.3z"/>
		</g>
		<g>
			<ellipse transform="matrix(0.2462 -0.9692 0.9692 0.2462 -8.1891 -3645.4224)" cx="-2347.8" cy="-1817.4" rx="8.2" ry="8.2"/>
		</g>
		<g>
			<path d="M-2359.6-1799.2c0,4.5-3.7,8.2-8.2,8.2s-8.2-3.7-8.2-8.2c0-4.5,3.7-8.2,8.2-8.2S-2359.6-1803.8-2359.6-1799.2z"/>
		</g>
		<g>
			<path d="M-2359.6-1919.5c0,4.5-3.7,8.2-8.2,8.2s-8.2-3.7-8.2-8.2c0-4.5,3.7-8.2,8.2-8.2S-2359.6-1924-2359.6-1919.5z"/>
		</g>
		<g>
			<path d="M-2359.6-1859.3c0,4.5-3.7,8.2-8.2,8.2s-8.2-3.7-8.2-8.2c0-4.5,3.7-8.2,8.2-8.2S-2359.6-1863.9-2359.6-1859.3z"/>
		</g>
		<g>
			<path d="M-2339.6-1858.4c0,4.5-3.7,8.2-8.2,8.2c-4.5,0-8.2-3.7-8.2-8.2c0-4.5,3.7-8.2,8.2-8.2
				C-2343.2-1866.6-2339.6-1863-2339.6-1858.4z"/>
		</g>
		<g>
			<ellipse transform="matrix(0.2462 -0.9692 0.9692 0.2462 11.675 -3660.8711)" cx="-2347.8" cy="-1837.9" rx="8.2" ry="8.2"/>
		</g>
		<g>
			<path d="M-2359.6-1879.4c0,4.5-3.7,8.2-8.2,8.2s-8.2-3.7-8.2-8.2c0-4.5,3.7-8.2,8.2-8.2S-2359.6-1883.9-2359.6-1879.4z"/>
		</g>
		<g>
			
				<ellipse transform="matrix(1.244831e-02 -0.9999 0.9999 1.244831e-02 -439.754 -4203.126)" cx="-2347.8" cy="-1878.9" rx="8.2" ry="8.2"/>
		</g>
		<g>
			<path d="M-2359.6-1899.4c0,4.5-3.7,8.2-8.2,8.2s-8.2-3.7-8.2-8.2c0-4.5,3.7-8.2,8.2-8.2S-2359.6-1904-2359.6-1899.4z"/>
		</g>
		<g>
			<path d="M-2339.6-1899.4c0,4.5-3.7,8.2-8.2,8.2c-4.5,0-8.2-3.7-8.2-8.2c0-4.5,3.7-8.2,8.2-8.2
				C-2343.2-1907.6-2339.6-1904-2339.6-1899.4z"/>
		</g>
		<g>
			<path d="M-2319.5-1859.3c0,4.5-3.7,8.2-8.2,8.2c-4.5,0-8.2-3.7-8.2-8.2c0-4.5,3.7-8.2,8.2-8.2
				C-2323.2-1867.5-2319.5-1863.9-2319.5-1859.3z"/>
		</g>
		<g>
			<path d="M-2319.5-1839.3c0,4.5-3.7,8.2-8.2,8.2c-4.5,0-8.2-3.7-8.2-8.2c0-4.5,3.7-8.2,8.2-8.2
				C-2323.2-1847.5-2319.5-1843.8-2319.5-1839.3z"/>
		</g>
		<g>
			<path d="M-2299.5-1859.3c0,4.5-3.7,8.2-8.2,8.2s-8.2-3.7-8.2-8.2c0-4.5,3.7-8.2,8.2-8.2S-2299.5-1863.9-2299.5-1859.3z"/>
		</g>
		<g>
			<path d="M-2319.5-1879.4c0,4.5-3.7,8.2-8.2,8.2c-4.5,0-8.2-3.7-8.2-8.2c0-4.5,3.7-8.2,8.2-8.2
				C-2323.2-1887.6-2319.5-1883.9-2319.5-1879.4z"/>
		</g>
	</g>
	<g>
		<g>
			<path d="M-2452.6-1839.3c0,4.5-3.7,8.2-8.2,8.2s-8.2-3.7-8.2-8.2c0-4.5,3.7-8.2,8.2-8.2S-2452.6-1843.8-2452.6-1839.3z"/>
		</g>
		<g>
			<path d="M-2452.6-1819.3c0,4.5-3.7,8.2-8.2,8.2s-8.2-3.7-8.2-8.2c0-4.5,3.7-8.2,8.2-8.2S-2452.6-1823.8-2452.6-1819.3z"/>
		</g>
		<g>
			<path d="M-2432.6-1817.4c0,4.5-3.7,8.2-8.2,8.2c-4.5,0-8.2-3.7-8.2-8.2c0-4.5,3.7-8.2,8.2-8.2
				C-2436.2-1825.6-2432.6-1822-2432.6-1817.4z"/>
		</g>
		<g>
			<path d="M-2452.6-1799.2c0,4.5-3.7,8.2-8.2,8.2s-8.2-3.7-8.2-8.2c0-4.5,3.7-8.2,8.2-8.2S-2452.6-1803.8-2452.6-1799.2z"/>
		</g>
		<g>
			<path d="M-2452.6-1919.5c0,4.5-3.7,8.2-8.2,8.2s-8.2-3.7-8.2-8.2c0-4.5,3.7-8.2,8.2-8.2S-2452.6-1924-2452.6-1919.5z"/>
		</g>
		<g>
			<path d="M-2452.6-1859.3c0,4.5-3.7,8.2-8.2,8.2s-8.2-3.7-8.2-8.2c0-4.5,3.7-8.2,8.2-8.2S-2452.6-1863.9-2452.6-1859.3z"/>
		</g>
		<g>
			<path d="M-2432.6-1858.4c0,4.5-3.7,8.2-8.2,8.2c-4.5,0-8.2-3.7-8.2-8.2c0-4.5,3.7-8.2,8.2-8.2
				C-2436.2-1866.6-2432.6-1863-2432.6-1858.4z"/>
		</g>
		<g>
			<path d="M-2432.6-1837.9c0,4.5-3.7,8.2-8.2,8.2c-4.5,0-8.2-3.7-8.2-8.2c0-4.5,3.7-8.2,8.2-8.2
				C-2436.2-1846.1-2432.6-1842.5-2432.6-1837.9z"/>
		</g>
		<g>
			<path d="M-2452.6-1879.4c0,4.5-3.7,8.2-8.2,8.2s-8.2-3.7-8.2-8.2c0-4.5,3.7-8.2,8.2-8.2S-2452.6-1883.9-2452.6-1879.4z"/>
		</g>
		<g>
			<path d="M-2432.6-1878.9c0,4.5-3.7,8.2-8.2,8.2c-4.5,0-8.2-3.7-8.2-8.2c0-4.5,3.7-8.2,8.2-8.2
				C-2436.2-1887.1-2432.6-1883.5-2432.6-1878.9z"/>
		</g>
		<g>
			<path d="M-2452.6-1899.4c0,4.5-3.7,8.2-8.2,8.2s-8.2-3.7-8.2-8.2c0-4.5,3.7-8.2,8.2-8.2S-2452.6-1904-2452.6-1899.4z"/>
		</g>
		<g>
			<path d="M-2432.6-1899.4c0,4.5-3.7,8.2-8.2,8.2c-4.5,0-8.2-3.7-8.2-8.2c0-4.5,3.7-8.2,8.2-8.2
				C-2436.2-1907.6-2432.6-1904-2432.6-1899.4z"/>
		</g>
		<g>
			<path d="M-2412.5-1859.3c0,4.5-3.7,8.2-8.2,8.2c-4.5,0-8.2-3.7-8.2-8.2c0-4.5,3.7-8.2,8.2-8.2
				C-2416.2-1867.5-2412.5-1863.9-2412.5-1859.3z"/>
		</g>
		<g>
			<path d="M-2412.5-1839.3c0,4.5-3.7,8.2-8.2,8.2c-4.5,0-8.2-3.7-8.2-8.2c0-4.5,3.7-8.2,8.2-8.2
				C-2416.2-1847.5-2412.5-1843.8-2412.5-1839.3z"/>
		</g>
		<g>
			<path d="M-2392.5-1859.3c0,4.5-3.7,8.2-8.2,8.2s-8.2-3.7-8.2-8.2c0-4.5,3.7-8.2,8.2-8.2S-2392.5-1863.9-2392.5-1859.3z"/>
		</g>
		<g>
			<path d="M-2412.5-1879.4c0,4.5-3.7,8.2-8.2,8.2c-4.5,0-8.2-3.7-8.2-8.2c0-4.5,3.7-8.2,8.2-8.2
				C-2416.2-1887.6-2412.5-1883.9-2412.5-1879.4z"/>
		</g>
	</g>
</g>
<g>
	<g>
		<path d="M-1905.7-3019.6c0,5.6-4.5,10.1-10.1,10.1c-5.6,0-10.1-4.5-10.1-10.1s4.5-10.1,10.1-10.1
			C-1910.2-3029.7-1905.7-3025.1-1905.7-3019.6z"/>
	</g>
	<g>
		<path d="M-1880.9-3017.3c0,5.6-4.5,10.1-10.1,10.1s-10.1-4.5-10.1-10.1c0-5.6,4.5-10.1,10.1-10.1S-1880.9-3022.9-1880.9-3017.3z"
			/>
	</g>
	<g>
		<path d="M-1930.5-2997c0,5.6-4.5,10.1-10.1,10.1c-5.6,0-10.1-4.5-10.1-10.1c0-5.6,4.5-10.1,10.1-10.1
			C-1935-3007.2-1930.5-3002.6-1930.5-2997z"/>
	</g>
	<g>
		<path d="M-1905.7-2994.8c0,5.6-4.5,10.1-10.1,10.1c-5.6,0-10.1-4.5-10.1-10.1c0-5.6,4.5-10.1,10.1-10.1
			C-1910.2-3004.9-1905.7-3000.4-1905.7-2994.8z"/>
	</g>
	<g>
		<path d="M-1930.5-3145.7c0,5.6-4.5,10.1-10.1,10.1c-5.6,0-10.1-4.5-10.1-10.1c0-5.6,4.5-10.1,10.1-10.1
			C-1935-3155.8-1930.5-3151.3-1930.5-3145.7z"/>
	</g>
	<g>
		<path d="M-1905.7-3143.5c0,5.6-4.5,10.1-10.1,10.1c-5.6,0-10.1-4.5-10.1-10.1s4.5-10.1,10.1-10.1
			C-1910.2-3153.6-1905.7-3149.1-1905.7-3143.5z"/>
	</g>
	<g>
		<path d="M-1880.9-3042.6c0,5.6-4.5,10.1-10.1,10.1s-10.1-4.5-10.1-10.1c0-5.6,4.5-10.1,10.1-10.1S-1880.9-3048.2-1880.9-3042.6z"
			/>
	</g>
	<g>
		<path d="M-1880.9-3093.3c0,5.6-4.5,10.1-10.1,10.1s-10.1-4.5-10.1-10.1c0-5.6,4.5-10.1,10.1-10.1S-1880.9-3098.9-1880.9-3093.3z"
			/>
	</g>
	<g>
		<path d="M-1905.7-3118.7c0,5.6-4.5,10.1-10.1,10.1c-5.6,0-10.1-4.5-10.1-10.1c0-5.6,4.5-10.1,10.1-10.1
			C-1910.2-3128.8-1905.7-3124.3-1905.7-3118.7z"/>
	</g>
	<g>
		<path d="M-1880.9-3118.7c0,5.6-4.5,10.1-10.1,10.1s-10.1-4.5-10.1-10.1c0-5.6,4.5-10.1,10.1-10.1S-1880.9-3124.3-1880.9-3118.7z"
			/>
	</g>
	<g>
		<path d="M-1856.1-3069.1c0,5.6-4.5,10.1-10.1,10.1c-5.6,0-10.1-4.5-10.1-10.1c0-5.6,4.5-10.1,10.1-10.1
			C-1860.6-3079.3-1856.1-3074.7-1856.1-3069.1z"/>
	</g>
	<g>
		<path d="M-1856.1-3044.3c0,5.6-4.5,10.1-10.1,10.1c-5.6,0-10.1-4.5-10.1-10.1c0-5.6,4.5-10.1,10.1-10.1
			C-1860.6-3054.5-1856.1-3049.9-1856.1-3044.3z"/>
	</g>
	<g>
		<path d="M-1831.3-3069.1c0,5.6-4.5,10.1-10.1,10.1s-10.1-4.5-10.1-10.1c0-5.6,4.5-10.1,10.1-10.1S-1831.3-3074.7-1831.3-3069.1z"
			/>
	</g>
	<g>
		<path d="M-1856.1-3093.9c0,5.6-4.5,10.1-10.1,10.1c-5.6,0-10.1-4.5-10.1-10.1c0-5.6,4.5-10.1,10.1-10.1
			C-1860.6-3104-1856.1-3099.5-1856.1-3093.9z"/>
	</g>
</g>
<g>
	<g>
		<g>
			<path d="M-1960-2426.8c0,3.5-2.9,6.4-6.4,6.4c-3.5,0-6.4-2.9-6.4-6.4c0-3.5,2.9-6.4,6.4-6.4
				C-1962.9-2433.2-1960-2430.3-1960-2426.8z"/>
		</g>
		<g>
			<path d="M-1944.3-2425.4c0,3.5-2.9,6.4-6.4,6.4c-3.5,0-6.4-2.9-6.4-6.4c0-3.5,2.9-6.4,6.4-6.4
				C-1947.2-2431.8-1944.3-2428.9-1944.3-2425.4z"/>
		</g>
		<g>
			<path d="M-1975.7-2412.5c0,3.5-2.9,6.4-6.4,6.4c-3.5,0-6.4-2.9-6.4-6.4c0-3.5,2.9-6.4,6.4-6.4
				C-1978.5-2418.9-1975.7-2416.1-1975.7-2412.5z"/>
		</g>
		<g>
			<path d="M-1960-2411.1c0,3.5-2.9,6.4-6.4,6.4c-3.5,0-6.4-2.9-6.4-6.4c0-3.5,2.9-6.4,6.4-6.4
				C-1962.9-2417.5-1960-2414.6-1960-2411.1z"/>
		</g>
		<g>
			<path d="M-1975.7-2506.6c0,3.5-2.9,6.4-6.4,6.4c-3.5,0-6.4-2.9-6.4-6.4c0-3.5,2.9-6.4,6.4-6.4
				C-1978.5-2513-1975.7-2510.1-1975.7-2506.6z"/>
		</g>
		<g>
			<path d="M-1960-2505.2c0,3.5-2.9,6.4-6.4,6.4c-3.5,0-6.4-2.9-6.4-6.4c0-3.5,2.9-6.4,6.4-6.4
				C-1962.9-2511.6-1960-2508.7-1960-2505.2z"/>
		</g>
		<g>
			<path d="M-1944.3-2441.4c0,3.5-2.9,6.4-6.4,6.4c-3.5,0-6.4-2.9-6.4-6.4c0-3.5,2.9-6.4,6.4-6.4
				C-1947.2-2447.8-1944.3-2444.9-1944.3-2441.4z"/>
		</g>
		<g>
			<path d="M-1944.3-2473.5c0,3.5-2.9,6.4-6.4,6.4c-3.5,0-6.4-2.9-6.4-6.4c0-3.5,2.9-6.4,6.4-6.4
				C-1947.2-2479.9-1944.3-2477-1944.3-2473.5z"/>
		</g>
		<g>
			<path d="M-1960-2489.5c0,3.5-2.9,6.4-6.4,6.4c-3.5,0-6.4-2.9-6.4-6.4c0-3.5,2.9-6.4,6.4-6.4
				C-1962.9-2495.9-1960-2493-1960-2489.5z"/>
		</g>
		<g>
			<circle cx="-1950.7" cy="-2489.5" r="6.4"/>
		</g>
		<g>
			<path d="M-1928.6-2458.1c0,3.5-2.9,6.4-6.4,6.4s-6.4-2.9-6.4-6.4s2.9-6.4,6.4-6.4S-1928.6-2461.7-1928.6-2458.1z"/>
		</g>
		<g>
			<path d="M-1928.6-2442.5c0,3.5-2.9,6.4-6.4,6.4s-6.4-2.9-6.4-6.4c0-3.5,2.9-6.4,6.4-6.4S-1928.6-2446-1928.6-2442.5z"/>
		</g>
		<g>
			<path d="M-1913-2458.1c0,3.5-2.9,6.4-6.4,6.4c-3.5,0-6.4-2.9-6.4-6.4s2.9-6.4,6.4-6.4C-1915.8-2464.6-1913-2461.7-1913-2458.1z"
				/>
		</g>
		<g>
			<path d="M-1928.6-2473.8c0,3.5-2.9,6.4-6.4,6.4s-6.4-2.9-6.4-6.4c0-3.5,2.9-6.4,6.4-6.4S-1928.6-2477.4-1928.6-2473.8z"/>
		</g>
	</g>
	<g>
		<g>
			<path d="M-1902-2426.8c0,3.5-2.9,6.4-6.4,6.4c-3.5,0-6.4-2.9-6.4-6.4c0-3.5,2.9-6.4,6.4-6.4
				C-1904.9-2433.2-1902-2430.3-1902-2426.8z"/>
		</g>
		<g>
			<path d="M-1886.3-2425.4c0,3.5-2.9,6.4-6.4,6.4c-3.5,0-6.4-2.9-6.4-6.4c0-3.5,2.9-6.4,6.4-6.4
				C-1889.2-2431.8-1886.3-2428.9-1886.3-2425.4z"/>
		</g>
		<g>
			<path d="M-1917.7-2412.5c0,3.5-2.9,6.4-6.4,6.4c-3.5,0-6.4-2.9-6.4-6.4c0-3.5,2.9-6.4,6.4-6.4
				C-1920.5-2418.9-1917.7-2416.1-1917.7-2412.5z"/>
		</g>
		<g>
			<path d="M-1902-2411.1c0,3.5-2.9,6.4-6.4,6.4c-3.5,0-6.4-2.9-6.4-6.4c0-3.5,2.9-6.4,6.4-6.4
				C-1904.9-2417.5-1902-2414.6-1902-2411.1z"/>
		</g>
		<g>
			<path d="M-1917.7-2506.6c0,3.5-2.9,6.4-6.4,6.4c-3.5,0-6.4-2.9-6.4-6.4c0-3.5,2.9-6.4,6.4-6.4
				C-1920.5-2513-1917.7-2510.1-1917.7-2506.6z"/>
		</g>
		<g>
			<path d="M-1902-2505.2c0,3.5-2.9,6.4-6.4,6.4c-3.5,0-6.4-2.9-6.4-6.4c0-3.5,2.9-6.4,6.4-6.4
				C-1904.9-2511.6-1902-2508.7-1902-2505.2z"/>
		</g>
		<g>
			<path d="M-1886.3-2441.4c0,3.5-2.9,6.4-6.4,6.4c-3.5,0-6.4-2.9-6.4-6.4c0-3.5,2.9-6.4,6.4-6.4
				C-1889.2-2447.8-1886.3-2444.9-1886.3-2441.4z"/>
		</g>
		<g>
			<path d="M-1886.3-2473.5c0,3.5-2.9,6.4-6.4,6.4c-3.5,0-6.4-2.9-6.4-6.4c0-3.5,2.9-6.4,6.4-6.4
				C-1889.2-2479.9-1886.3-2477-1886.3-2473.5z"/>
		</g>
		<g>
			<path d="M-1902-2489.5c0,3.5-2.9,6.4-6.4,6.4c-3.5,0-6.4-2.9-6.4-6.4c0-3.5,2.9-6.4,6.4-6.4
				C-1904.9-2495.9-1902-2493-1902-2489.5z"/>
		</g>
		<g>
			<path d="M-1886.3-2489.5c0,3.5-2.9,6.4-6.4,6.4c-3.5,0-6.4-2.9-6.4-6.4c0-3.5,2.9-6.4,6.4-6.4
				C-1889.2-2495.9-1886.3-2493-1886.3-2489.5z"/>
		</g>
		<g>
			<path d="M-1870.6-2458.1c0,3.5-2.9,6.4-6.4,6.4s-6.4-2.9-6.4-6.4s2.9-6.4,6.4-6.4S-1870.6-2461.7-1870.6-2458.1z"/>
		</g>
		<g>
			<path d="M-1870.6-2442.5c0,3.5-2.9,6.4-6.4,6.4s-6.4-2.9-6.4-6.4c0-3.5,2.9-6.4,6.4-6.4S-1870.6-2446-1870.6-2442.5z"/>
		</g>
		<g>
			<path d="M-1855-2458.1c0,3.5-2.9,6.4-6.4,6.4c-3.5,0-6.4-2.9-6.4-6.4s2.9-6.4,6.4-6.4C-1857.8-2464.6-1855-2461.7-1855-2458.1z"
				/>
		</g>
		<g>
			<path d="M-1870.6-2473.8c0,3.5-2.9,6.4-6.4,6.4s-6.4-2.9-6.4-6.4c0-3.5,2.9-6.4,6.4-6.4S-1870.6-2477.4-1870.6-2473.8z"/>
		</g>
	</g>
	<g>
		<g>
			<path d="M-1840.6-2426.8c0,3.5-2.9,6.4-6.4,6.4c-3.5,0-6.4-2.9-6.4-6.4c0-3.5,2.9-6.4,6.4-6.4
				C-1843.5-2433.2-1840.6-2430.3-1840.6-2426.8z"/>
		</g>
		<g>
			<path d="M-1824.9-2425.4c0,3.5-2.9,6.4-6.4,6.4c-3.5,0-6.4-2.9-6.4-6.4c0-3.5,2.9-6.4,6.4-6.4
				C-1827.8-2431.8-1824.9-2428.9-1824.9-2425.4z"/>
		</g>
		<g>
			<path d="M-1856.3-2412.5c0,3.5-2.9,6.4-6.4,6.4s-6.4-2.9-6.4-6.4c0-3.5,2.9-6.4,6.4-6.4S-1856.3-2416.1-1856.3-2412.5z"/>
		</g>
		<g>
			<path d="M-1840.6-2411.1c0,3.5-2.9,6.4-6.4,6.4c-3.5,0-6.4-2.9-6.4-6.4c0-3.5,2.9-6.4,6.4-6.4
				C-1843.5-2417.5-1840.6-2414.6-1840.6-2411.1z"/>
		</g>
		<g>
			<path d="M-1856.3-2506.6c0,3.5-2.9,6.4-6.4,6.4s-6.4-2.9-6.4-6.4c0-3.5,2.9-6.4,6.4-6.4S-1856.3-2510.1-1856.3-2506.6z"/>
		</g>
		<g>
			<path d="M-1840.6-2505.2c0,3.5-2.9,6.4-6.4,6.4c-3.5,0-6.4-2.9-6.4-6.4c0-3.5,2.9-6.4,6.4-6.4
				C-1843.5-2511.6-1840.6-2508.7-1840.6-2505.2z"/>
		</g>
		<g>
			<path d="M-1824.9-2441.4c0,3.5-2.9,6.4-6.4,6.4c-3.5,0-6.4-2.9-6.4-6.4c0-3.5,2.9-6.4,6.4-6.4
				C-1827.8-2447.8-1824.9-2444.9-1824.9-2441.4z"/>
		</g>
		<g>
			<path d="M-1824.9-2473.5c0,3.5-2.9,6.4-6.4,6.4c-3.5,0-6.4-2.9-6.4-6.4c0-3.5,2.9-6.4,6.4-6.4
				C-1827.8-2479.9-1824.9-2477-1824.9-2473.5z"/>
		</g>
		<g>
			<path d="M-1840.6-2489.5c0,3.5-2.9,6.4-6.4,6.4c-3.5,0-6.4-2.9-6.4-6.4c0-3.5,2.9-6.4,6.4-6.4
				C-1843.5-2495.9-1840.6-2493-1840.6-2489.5z"/>
		</g>
		<g>
			<path d="M-1824.9-2489.5c0,3.5-2.9,6.4-6.4,6.4c-3.5,0-6.4-2.9-6.4-6.4c0-3.5,2.9-6.4,6.4-6.4
				C-1827.8-2495.9-1824.9-2493-1824.9-2489.5z"/>
		</g>
		<g>
			<path d="M-1809.2-2458.1c0,3.5-2.9,6.4-6.4,6.4s-6.4-2.9-6.4-6.4s2.9-6.4,6.4-6.4S-1809.2-2461.7-1809.2-2458.1z"/>
		</g>
		<g>
			<path d="M-1809.2-2442.5c0,3.5-2.9,6.4-6.4,6.4s-6.4-2.9-6.4-6.4c0-3.5,2.9-6.4,6.4-6.4S-1809.2-2446-1809.2-2442.5z"/>
		</g>
		<g>
			<path d="M-1793.6-2458.1c0,3.5-2.9,6.4-6.4,6.4c-3.5,0-6.4-2.9-6.4-6.4s2.9-6.4,6.4-6.4
				C-1796.4-2464.6-1793.6-2461.7-1793.6-2458.1z"/>
		</g>
		<g>
			<path d="M-1809.2-2473.8c0,3.5-2.9,6.4-6.4,6.4s-6.4-2.9-6.4-6.4c0-3.5,2.9-6.4,6.4-6.4S-1809.2-2477.4-1809.2-2473.8z"/>
		</g>
	</g>
</g>
<g>
	<path d="M-2242.1-3004.4l153.5-65.8l-153.5-65.8c14.6,21.9,29.2,43.9,43.9,65.8C-2212.8-3048.3-2227.5-3026.4-2242.1-3004.4z"/>
</g>
<g>
	<path d="M-2276.2-2680l153.5-65.8l-153.5-65.8c0.1,0.2,0.3,0.4,0.4,0.7c26.9,39.5,26.9,90.8,0,130.3
		C-2275.9-2680.4-2276-2680.2-2276.2-2680z"/>
</g>
<g>
	<g>
		<path d="M-1999.6-1819.8l92.2-39.5l-92.2-39.5c0.1,0.1,0.2,0.3,0.3,0.4c16.2,23.7,16.2,54.6,0,78.3
			C-1999.4-1820.1-1999.5-1819.9-1999.6-1819.8z"/>
	</g>
	<g>
		<path d="M-2091.4-1819.8l92.2-39.5l-92.2-39.5c0.1,0.1,0.2,0.3,0.3,0.4c16.2,23.7,16.2,54.6,0,78.3
			C-2091.2-1820.1-2091.3-1819.9-2091.4-1819.8z"/>
	</g>
	<g>
		<path d="M-2183.1-1819.8l92.2-39.5l-92.2-39.5c0.1,0.1,0.2,0.3,0.3,0.4c16.2,23.7,16.2,54.6,0,78.3
			C-2182.9-1820.1-2183-1819.9-2183.1-1819.8z"/>
	</g>
</g>
<g>
	<path d="M-2917.2-1765.8l35.6-39.6c30.1-32.8,30.1-75.1,0-107.8l-0.6-0.7l-35-39l202,93.5L-2917.2-1765.8z M-2845-1895.7
		c9.8,23.6,9.8,49.1,0,72.8l78.6-36.4L-2845-1895.7z"/>
</g>
<g>
	<g>
		<path d="M-2258-2375.2l12.9-5.5c31.1-13.3,52.2-43.6,52.3-77.5c0-0.4,0-0.8,0-1.3c-0.1-33.8-21.2-64.1-52.3-77.5l-12.9-5.5
			c0,0,0,0,0,0C-2223-2491.9-2223-2425.8-2258-2375.2C-2258-2375.2-2258-2375.2-2258-2375.2z"/>
	</g>
	<g>
		<path d="M-2206.1-2375.2l12.9-5.5c31.1-13.3,52.2-43.6,52.3-77.5c0-0.4,0-0.8,0-1.3c-0.1-33.8-21.2-64.1-52.3-77.5l-12.9-5.5
			c0,0,0,0,0,0C-2171.1-2491.9-2171.1-2425.8-2206.1-2375.2C-2206.1-2375.2-2206.1-2375.2-2206.1-2375.2z"/>
	</g>
</g>
<g>
	<g>
		<path d="M-1941-2070.6l12.9-5.5c31.1-13.3,52.2-43.6,52.3-77.5c0-0.4,0-0.8,0-1.3c-0.1-33.9-21.2-64.1-52.3-77.5l-12.9-5.5
			c0,0,0,0,0,0C-1906-2187.3-1906-2121.1-1941-2070.6C-1941-2070.6-1941-2070.6-1941-2070.6z"/>
	</g>
	<g>
		<path d="M-1838.1-2070.6l12.9-5.5c31.1-13.3,52.2-43.6,52.3-77.5c0-0.4,0-0.8,0-1.3c-0.1-33.9-21.2-64.1-52.3-77.5l-12.9-5.5
			c0,0,0,0,0,0C-1803.1-2187.3-1803.1-2121.1-1838.1-2070.6C-1838.1-2070.6-1838.1-2070.6-1838.1-2070.6z"/>
	</g>
	<g>
		<path d="M-1889.5-2070.6l12.9-5.5c31.1-13.3,52.2-43.6,52.3-77.5c0-0.4,0-0.8,0-1.3c-0.1-33.9-21.2-64.1-52.3-77.5l-12.9-5.5
			c0,0,0,0,0,0C-1854.5-2187.3-1854.5-2121.1-1889.5-2070.6C-1889.5-2070.6-1889.5-2070.6-1889.5-2070.6z"/>
	</g>
</g>
<g>
	<g>
		<polygon points="-1967.8,-2816 -1923.9,-2750.2 -1967.8,-2684.4 -1923.9,-2684.4 -1880.1,-2750.2 -1923.9,-2816 		"/>
	</g>
	<g>
		<polygon points="-1902,-2816 -1858.1,-2750.2 -1902,-2684.4 -1858.1,-2684.4 -1814.3,-2750.2 -1858.1,-2816 		"/>
	</g>
</g>
<g>
	<path d="M-2888.4-1613l25.4,38.1c2.4,3.6,2.4,8.2,0,11.7l-25.4,38.1c-9.5,14.3,0.7,33.3,17.8,33.3l0,0c7.2,0,13.9-3.6,17.8-9.5
		l33.6-50.4c7-10.5,7-24.3,0-34.8l-33.6-50.4c-4-6-10.7-9.5-17.8-9.5l0,0C-2887.6-1646.3-2897.9-1627.2-2888.4-1613z"/>
</g>
<g>
	<path d="M-2815-1613l25.4,38.1c2.4,3.6,2.4,8.2,0,11.7l-25.4,38.1c-9.5,14.3,0.7,33.3,17.8,33.3l0,0c7.2,0,13.9-3.6,17.8-9.5
		l33.6-50.4c7-10.5,7-24.3,0-34.8l-33.6-50.4c-4-6-10.7-9.5-17.8-9.5l0,0C-2814.3-1646.3-2824.5-1627.2-2815-1613z"/>
</g>
<g>
	<g>
		<polygon points="-1381.7,-3136 -1337.8,-3070.2 -1381.7,-3004.4 -1337.8,-3004.4 -1293.9,-3070.2 -1337.8,-3136 		"/>
	</g>
	<g>
		<polygon points="-1318.1,-3136 -1274.2,-3070.2 -1318.1,-3004.4 -1274.2,-3004.4 -1230.3,-3070.2 -1274.2,-3136 		"/>
	</g>
	<g>
		<polygon points="-1254.5,-3136 -1210.6,-3070.2 -1254.5,-3004.4 -1210.6,-3004.4 -1166.7,-3070.2 -1210.6,-3136 		"/>
	</g>
</g>
<g>
	<g>
		<polygon points="-2974.9,-2220 -2931,-2154.2 -2974.9,-2088.4 -2862.8,-2088.4 -2818.9,-2154.2 -2862.8,-2220 		"/>
	</g>
	<g>
		<polygon points="-2843.1,-2220 -2799.2,-2154.2 -2843.1,-2088.4 -2765.1,-2088.4 -2721.2,-2154.2 -2765.1,-2220 		"/>
	</g>
	<g>
		<polygon points="-2745.3,-2220 -2701.5,-2154.2 -2745.3,-2088.4 -2701.5,-2088.4 -2657.6,-2154.2 -2701.5,-2220 		"/>
	</g>
</g>
<g>
	<g>
		<rect x="-1683.2" y="-2762.1" width="184.2" height="23.9"/>
	</g>
	<g>
		<polygon points="-1551.9,-2680.3 -1568.8,-2697.2 -1515.8,-2750.2 -1568.8,-2803.1 -1551.9,-2820 -1482.1,-2750.2 		"/>
	</g>
</g>
<g>
	<path d="M-1698.9-1503.2l153.5-65.8l-153.5-65.8l0,0c10.3,15.5,16.6,32.8,18.9,50.6l-94.1-5.2v20.5v20.5l94.1-5.2
		C-1682.3-1536-1688.5-1518.7-1698.9-1503.2L-1698.9-1503.2z"/>
</g>
<g>
	<g>
		<rect x="-1672.6" y="-3089" width="153.5" height="37.5"/>
	</g>
	<g>
		<polygon points="-1567.3,-2995.6 -1593.8,-3022.1 -1545.7,-3070.2 -1593.8,-3118.4 -1567.3,-3144.9 -1492.6,-3070.2 		"/>
	</g>
</g>
<g>
	<path d="M-1933.8-1578.9l-46.2-46.2c-7-7-18.4-7-25.4,0l0,0c-7,7-7,18.4,0,25.4l15.4,15.4h-154c-9.9,0-18,8.1-18,18v0
		c0,9.9,8.1,18,18,18h154l-15.4,15.4c-7,7-7,18.4,0,25.4c7,7,18.4,7,25.4,0l46.2-46.2C-1926.8-1560.5-1926.8-1571.9-1933.8-1578.9z"
		/>
</g>
<g>
	<path d="M-2477.2-2372.1l-38.6-38.6l20.8-20.8h-130.3v-54.6h130.3l-20.8-20.8l38.6-38.6l86.7,86.7L-2477.2-2372.1z M-2491.7-2410.7
		l14.5,14.5l62.6-62.6l-62.6-62.6l-14.5,14.5l37.9,37.9h-154.4v20.5h154.4L-2491.7-2410.7z"/>
</g>
<g>
	<g>
		<polygon points="-1296.5,-2671.9 -1330.2,-2705.7 -1285.7,-2750.2 -1330.2,-2794.7 -1296.5,-2828.5 -1218.2,-2750.2 		"/>
	</g>
</g>
<g>
	<g>
		<polygon points="-2842.5,-2366.5 -2882.4,-2406.3 -2829.8,-2458.9 -2882.4,-2511.4 -2842.5,-2551.3 -2750.1,-2458.9 		"/>
	</g>
</g>
<g>
	<g>
		<g>
			<g>
				<path d="M-1622.6-2086.5l-36.1-36.1l31.6-31.6l-31.6-31.6l36.1-36.1l67.7,67.7L-1622.6-2086.5z M-1634.5-2122.6l11.9,11.9
					l43.6-43.6l-43.6-43.6l-11.9,11.9l31.6,31.6L-1634.5-2122.6z"/>
			</g>
		</g>
	</g>
	<g>
		<g>
			<g>
				<path d="M-1574.3-2086.5l-36.1-36.1l31.6-31.6l-31.6-31.6l36.1-36.1l67.7,67.7L-1574.3-2086.5z M-1586.3-2122.6l11.9,11.9
					l43.6-43.6l-43.6-43.6l-11.9,11.9l31.6,31.6L-1586.3-2122.6z"/>
			</g>
		</g>
	</g>
</g>
<g>
	<g>
		<g>
			<g>
				<path d="M-2537.8-2086.5l-36.1-36.1l31.6-31.6l-31.6-31.6l36.1-36.1l67.7,67.7L-2537.8-2086.5z M-2549.8-2122.6l11.9,11.9
					l43.6-43.6l-43.6-43.6l-11.9,11.9l31.6,31.6L-2549.8-2122.6z"/>
			</g>
		</g>
	</g>
	<g>
		<g>
			<g>
				<path d="M-2489.6-2086.5l-36.1-36.1l31.6-31.6l-31.6-31.6l36.1-36.1l67.7,67.7L-2489.6-2086.5z M-2501.5-2122.6l11.9,11.9
					l43.6-43.6l-43.6-43.6l-11.9,11.9l31.6,31.6L-2501.5-2122.6z"/>
			</g>
		</g>
	</g>
	<g>
		<g>
			<g>
				<path d="M-2441.3-2086.5l-36.1-36.1l31.6-31.6l-31.6-31.6l36.1-36.1l67.7,67.7L-2441.3-2086.5z M-2453.2-2122.6l11.9,11.9
					l43.6-43.6l-43.6-43.6l-11.9,11.9l31.6,31.6L-2453.2-2122.6z"/>
			</g>
		</g>
	</g>
</g>
<g>
	<g>
		<g>
			<path d="M-1539.7-2450.3h-85.8c-4.7,0-8.5-3.8-8.5-8.5c0-4.7,3.8-8.5,8.5-8.5h85.8c4.7,0,8.5,3.8,8.5,8.5
				C-1531.2-2454.1-1535-2450.3-1539.7-2450.3z"/>
		</g>
		<g>
			<path d="M-1568.3-2421.7c-2.2,0-4.4-0.8-6-2.5c-3.3-3.3-3.3-8.7,0-12.1l22.6-22.6l-22.6-22.6c-3.3-3.3-3.3-8.7,0-12.1
				c3.3-3.3,8.7-3.3,12.1,0l28.6,28.6c3.3,3.3,3.3,8.7,0,12.1l-28.6,28.6C-1564-2422.6-1566.1-2421.7-1568.3-2421.7z"/>
		</g>
	</g>
	<g>
		<path d="M-1582.6-2362.6c-53.1,0-96.3-43.2-96.3-96.3c0-53.1,43.2-96.3,96.3-96.3s96.3,43.2,96.3,96.3
			C-1486.4-2405.8-1529.5-2362.6-1582.6-2362.6z M-1582.6-2538c-43.7,0-79.2,35.5-79.2,79.2c0,43.7,35.5,79.2,79.2,79.2
			c43.7,0,79.2-35.5,79.2-79.2C-1503.4-2502.5-1539-2538-1582.6-2538z"/>
	</g>
</g>
<g>
	<g>
		<path d="M-2195.5-2123.1v-62.1c0-14.1,16.1-22.2,27.4-13.7l41.4,31.1c9.1,6.9,9.1,20.6,0,27.4l-41.4,31.1
			C-2179.3-2100.9-2195.5-2109-2195.5-2123.1z"/>
	</g>
	<g>
		<path d="M-2165.3-2057.9c-53.1,0-96.3-43.2-96.3-96.3c0-53.1,43.2-96.3,96.3-96.3s96.3,43.2,96.3,96.3
			C-2069.1-2101.1-2112.2-2057.9-2165.3-2057.9z M-2165.3-2233.4c-43.7,0-79.2,35.5-79.2,79.2c0,43.7,35.5,79.2,79.2,79.2
			c43.7,0,79.2-35.5,79.2-79.2C-2086.1-2197.9-2121.7-2233.4-2165.3-2233.4z"/>
	</g>
</g>
<g>
	<g>
		<path d="M-2386.6-1577.6l-35.7-26.8c-7.1-5.3-17.2-0.3-17.2,8.6l0,0c0,5.9-4.8,10.7-10.7,10.7h-51.4c-5.9,0-10.7,4.8-10.7,10.7
			v10.7c0,5.9,4.8,10.7,10.7,10.7h51.4c5.9,0,10.7,4.8,10.7,10.7l0,0c0,8.8,10.1,13.9,17.2,8.6l35.7-26.8
			C-2380.9-1564.7-2380.9-1573.3-2386.6-1577.6z"/>
	</g>
	<g>
		<path d="M-2430.7-1474.2c-52.3,0-94.8-42.5-94.8-94.8c0-52.3,42.5-94.8,94.8-94.8c52.3,0,94.8,42.5,94.8,94.8
			C-2335.9-1516.7-2378.5-1474.2-2430.7-1474.2z M-2430.7-1642.2c-40.4,0-73.3,32.9-73.3,73.3c0,40.4,32.9,73.3,73.3,73.3
			c40.4,0,73.3-32.9,73.3-73.3C-2357.5-1609.4-2390.3-1642.2-2430.7-1642.2z"/>
	</g>
</g>
<g>
	<polygon points="-2351.9,-3070.2 -2455.1,-3147.6 -2455.1,-3102.4 -2595.5,-3124.7 -2595.5,-3015.8 -2455.1,-3038.1 
		-2455.1,-2992.9 	"/>
</g>
<g>
	<g>
		<g>
			<path d="M-1346.1-1560.4h-85.8c-4.7,0-8.5-3.8-8.5-8.5c0-4.7,3.8-8.5,8.5-8.5h85.8c4.7,0,8.5,3.8,8.5,8.5
				C-1337.6-1564.3-1341.4-1560.4-1346.1-1560.4z"/>
		</g>
		<g>
			<path d="M-1374.7-1531.9c-2.2,0-4.4-0.8-6-2.5c-3.3-3.3-3.3-8.7,0-12.1l22.6-22.6l-22.6-22.6c-3.3-3.3-3.3-8.7,0-12.1
				c3.3-3.3,8.7-3.3,12.1,0l28.6,28.6c3.3,3.3,3.3,8.7,0,12.1l-28.6,28.6C-1370.3-1532.7-1372.5-1531.9-1374.7-1531.9z"/>
		</g>
	</g>
	<g>
		<g>
			<path d="M-1231.3-1560.4h-85.8c-4.7,0-8.5-3.8-8.5-8.5c0-4.7,3.8-8.5,8.5-8.5h85.8c4.7,0,8.5,3.8,8.5,8.5
				C-1222.8-1564.3-1226.6-1560.4-1231.3-1560.4z"/>
		</g>
		<g>
			<path d="M-1259.9-1531.9c-2.2,0-4.4-0.8-6-2.5c-3.3-3.3-3.3-8.7,0-12.1l22.6-22.6l-22.6-22.6c-3.3-3.3-3.3-8.7,0-12.1
				c3.3-3.3,8.7-3.3,12.1,0l28.6,28.6c3.3,3.3,3.3,8.7,0,12.1l-28.6,28.6C-1255.5-1532.7-1257.7-1531.9-1259.9-1531.9z"/>
		</g>
	</g>
	<g>
		<g>
			<path d="M-1116.5-1560.4h-85.8c-4.7,0-8.5-3.8-8.5-8.5c0-4.7,3.8-8.5,8.5-8.5h85.8c4.7,0,8.5,3.8,8.5,8.5
				C-1108-1564.3-1111.8-1560.4-1116.5-1560.4z"/>
		</g>
		<g>
			<path d="M-1145.1-1531.9c-2.2,0-4.4-0.8-6-2.5c-3.3-3.3-3.3-8.7,0-12.1l22.6-22.6l-22.6-22.6c-3.3-3.3-3.3-8.7,0-12.1
				c3.3-3.3,8.7-3.3,12.1,0l28.6,28.6c3.3,3.3,3.3,8.7,0,12.1l-28.6,28.6C-1140.8-1532.7-1142.9-1531.9-1145.1-1531.9z"/>
		</g>
	</g>
</g>
</svg>
