<?xml version="1.0" encoding="utf-8"?>
<!-- Generator: Adobe Illustrator 24.1.2, SVG Export Plug-In . SVG Version: 6.00 Build 0)  -->
<svg version="1.1" id="Слой_1" xmlns="http://www.w3.org/2000/svg" xmlns:xlink="http://www.w3.org/1999/xlink" x="0px" y="0px"
	 viewBox="0 0 78.2 154.6" style="enable-background:new 0 0 78.2 154.6;" xml:space="preserve">
<style type="text/css">
	.st0{fill:#FFFFFF;}
</style>
<g>
	<path class="st0" d="M154.5,33.3l25.4,38.1c2.4,3.6,2.4,8.2,0,11.7l-25.4,38.1c-9.5,14.3,0.7,33.3,17.8,33.3l0,0
		c7.2,0,13.9-3.6,17.8-9.5l33.6-50.4c7-10.5,7-24.3,0-34.8L190.2,9.5c-4-6-10.7-9.5-17.8-9.5l0,0C155.2,0,145,19.1,154.5,33.3z"/>
</g>
<g>
	<path class="st0" d="M74.5,121.3L49.1,83.2c-2.4-3.6-2.4-8.2,0-11.7l25.4-38.1C84,19.1,73.8,0,56.7,0l0,0c-7.2,0-13.9,3.6-17.8,9.5
		L5.3,59.9c-7,10.5-7,24.3,0,34.8l33.6,50.4c4,6,10.7,9.5,17.8,9.5l0,0C73.8,154.6,84,135.6,74.5,121.3z"/>
</g>
<polygon points="-1015.9,-2154.2 -1094,-2212.8 -1094,-2173.7 -1230.8,-2173.7 -1230.8,-2134.7 -1094,-2134.7 -1094,-2095.6 "/>
<g>
	<g>
		<rect x="-1616.3" y="-1892.4" width="115.7" height="66.1"/>
	</g>
	<g>
		<polygon points="-1533.6,-1760.2 -1533.6,-1958.5 -1401.4,-1859.3 		"/>
	</g>
</g>
<g>
	<polygon points="-2731.5,-2971 -2731.5,-3169.4 -2599.2,-3070.2 	"/>
</g>
<g>
	<g>
		<polygon points="-1198.8,-1802.7 -1123.3,-1859.3 -1198.8,-1916 		"/>
	</g>
	<g>
		<polygon points="-1047.8,-1859.3 -1123.3,-1916 -1123.3,-1859.3 -1123.3,-1802.7 		"/>
	</g>
</g>
<g>
	<g>
		<path d="M-2753.7-2709.6c0,7-5.7,12.6-12.6,12.6c-7,0-12.6-5.7-12.6-12.6c0-7,5.7-12.6,12.6-12.6
			C-2759.4-2722.2-2753.7-2716.5-2753.7-2709.6z"/>
	</g>
	<g>
		<path d="M-2753.7-2734.8c0,7-5.7,12.6-12.6,12.6c-7,0-12.6-5.7-12.6-12.6c0-7,5.7-12.6,12.6-12.6
			C-2759.4-2747.5-2753.7-2741.8-2753.7-2734.8z"/>
	</g>
	<g>
		<path d="M-2753.7-2760.1c0,7-5.7,12.6-12.6,12.6c-7,0-12.6-5.7-12.6-12.6s5.7-12.6,12.6-12.6
			C-2759.4-2772.7-2753.7-2767-2753.7-2760.1z"/>
	</g>
	<g>
		<path d="M-2728.5-2709.6c0,7-5.7,12.6-12.6,12.6c-7,0-12.6-5.7-12.6-12.6c0-7,5.7-12.6,12.6-12.6
			C-2734.1-2722.2-2728.5-2716.5-2728.5-2709.6z"/>
	</g>
	<g>
		<path d="M-2728.5-2734.8c0,7-5.7,12.6-12.6,12.6c-7,0-12.6-5.7-12.6-12.6c0-7,5.7-12.6,12.6-12.6
			C-2734.1-2747.5-2728.5-2741.8-2728.5-2734.8z"/>
	</g>
	<g>
		<path d="M-2728.5-2760.1c0,7-5.7,12.6-12.6,12.6c-7,0-12.6-5.7-12.6-12.6s5.7-12.6,12.6-12.6
			C-2734.1-2772.7-2728.5-2767-2728.5-2760.1z"/>
	</g>
	<g>
		<path d="M-2703.2-2709.6c0,7-5.7,12.6-12.6,12.6c-7,0-12.6-5.7-12.6-12.6c0-7,5.7-12.6,12.6-12.6
			C-2708.9-2722.2-2703.2-2716.5-2703.2-2709.6z"/>
	</g>
	<g>
		<path d="M-2703.2-2734.8c0,7-5.7,12.6-12.6,12.6c-7,0-12.6-5.7-12.6-12.6c0-7,5.7-12.6,12.6-12.6
			C-2708.9-2747.5-2703.2-2741.8-2703.2-2734.8z"/>
	</g>
	<g>
		<path d="M-2703.2-2760.1c0,7-5.7,12.6-12.6,12.6c-7,0-12.6-5.7-12.6-12.6s5.7-12.6,12.6-12.6
			C-2708.9-2772.7-2703.2-2767-2703.2-2760.1z"/>
	</g>
	<g>
		<path d="M-2678-2709.6c0,7-5.7,12.6-12.6,12.6c-7,0-12.6-5.7-12.6-12.6c0-7,5.7-12.6,12.6-12.6
			C-2683.6-2722.2-2678-2716.5-2678-2709.6z"/>
	</g>
	<g>
		<path d="M-2678-2734.8c0,7-5.7,12.6-12.6,12.6c-7,0-12.6-5.7-12.6-12.6c0-7,5.7-12.6,12.6-12.6
			C-2683.6-2747.5-2678-2741.8-2678-2734.8z"/>
	</g>
	<g>
		<path d="M-2678-2760.1c0,7-5.7,12.6-12.6,12.6c-7,0-12.6-5.7-12.6-12.6s5.7-12.6,12.6-12.6C-2683.6-2772.7-2678-2767-2678-2760.1z
			"/>
	</g>
	<g>
		<path d="M-2652.7-2709.6c0,7-5.7,12.6-12.6,12.6s-12.6-5.7-12.6-12.6c0-7,5.7-12.6,12.6-12.6S-2652.7-2716.5-2652.7-2709.6z"/>
	</g>
	<g>
		<path d="M-2652.7-2734.8c0,7-5.7,12.6-12.6,12.6s-12.6-5.7-12.6-12.6c0-7,5.7-12.6,12.6-12.6S-2652.7-2741.8-2652.7-2734.8z"/>
	</g>
	<g>
		<path d="M-2652.7-2760.1c0,7-5.7,12.6-12.6,12.6s-12.6-5.7-12.6-12.6s5.7-12.6,12.6-12.6S-2652.7-2767-2652.7-2760.1z"/>
	</g>
	<g>
		<path d="M-2627.5-2709.6c0,7-5.7,12.6-12.6,12.6c-7,0-12.6-5.7-12.6-12.6c0-7,5.7-12.6,12.6-12.6
			C-2633.1-2722.2-2627.5-2716.5-2627.5-2709.6z"/>
	</g>
	<g>
		<path d="M-2627.5-2684.3c0,7-5.7,12.6-12.6,12.6c-7,0-12.6-5.7-12.6-12.6c0-7,5.7-12.6,12.6-12.6
			C-2633.1-2697-2627.5-2691.3-2627.5-2684.3z"/>
	</g>
	<g>
		<path d="M-2602.2-2684.3c0,7-5.7,12.6-12.6,12.6s-12.6-5.7-12.6-12.6c0-7,5.7-12.6,12.6-12.6S-2602.2-2691.3-2602.2-2684.3z"/>
	</g>
	<g>
		<path d="M-2627.5-2659.1c0,7-5.7,12.6-12.6,12.6c-7,0-12.6-5.7-12.6-12.6c0-7,5.7-12.6,12.6-12.6
			C-2633.1-2671.7-2627.5-2666.1-2627.5-2659.1z"/>
	</g>
	<g>
		<path d="M-2627.5-2810.6c0,7-5.7,12.6-12.6,12.6c-7,0-12.6-5.7-12.6-12.6c0-7,5.7-12.6,12.6-12.6
			C-2633.1-2823.2-2627.5-2817.5-2627.5-2810.6z"/>
	</g>
	<g>
		<path d="M-2627.5-2734.8c0,7-5.7,12.6-12.6,12.6c-7,0-12.6-5.7-12.6-12.6c0-7,5.7-12.6,12.6-12.6
			C-2633.1-2747.5-2627.5-2741.8-2627.5-2734.8z"/>
	</g>
	<g>
		<path d="M-2602.2-2734.8c0,7-5.7,12.6-12.6,12.6s-12.6-5.7-12.6-12.6c0-7,5.7-12.6,12.6-12.6S-2602.2-2741.8-2602.2-2734.8z"/>
	</g>
	<g>
		<path d="M-2602.2-2709.6c0,7-5.7,12.6-12.6,12.6s-12.6-5.7-12.6-12.6c0-7,5.7-12.6,12.6-12.6S-2602.2-2716.5-2602.2-2709.6z"/>
	</g>
	<g>
		<path d="M-2627.5-2760.1c0,7-5.7,12.6-12.6,12.6c-7,0-12.6-5.7-12.6-12.6s5.7-12.6,12.6-12.6
			C-2633.1-2772.7-2627.5-2767-2627.5-2760.1z"/>
	</g>
	<g>
		<path d="M-2602.2-2760.1c0,7-5.7,12.6-12.6,12.6s-12.6-5.7-12.6-12.6s5.7-12.6,12.6-12.6S-2602.2-2767-2602.2-2760.1z"/>
	</g>
	<g>
		<path d="M-2627.5-2785.3c0,7-5.7,12.6-12.6,12.6c-7,0-12.6-5.7-12.6-12.6c0-7,5.7-12.6,12.6-12.6
			C-2633.1-2797.9-2627.5-2792.3-2627.5-2785.3z"/>
	</g>
	<g>
		<path d="M-2602.2-2785.3c0,7-5.7,12.6-12.6,12.6s-12.6-5.7-12.6-12.6c0-7,5.7-12.6,12.6-12.6S-2602.2-2792.3-2602.2-2785.3z"/>
	</g>
	<g>
		<path d="M-2577-2734.8c0,7-5.7,12.6-12.6,12.6c-7,0-12.6-5.7-12.6-12.6c0-7,5.7-12.6,12.6-12.6
			C-2582.6-2747.5-2577-2741.8-2577-2734.8z"/>
	</g>
	<g>
		<path d="M-2577-2709.6c0,7-5.7,12.6-12.6,12.6c-7,0-12.6-5.7-12.6-12.6c0-7,5.7-12.6,12.6-12.6
			C-2582.6-2722.2-2577-2716.5-2577-2709.6z"/>
	</g>
	<g>
		<path d="M-2551.7-2734.8c0,7-5.7,12.6-12.6,12.6c-7,0-12.6-5.7-12.6-12.6c0-7,5.7-12.6,12.6-12.6
			C-2557.4-2747.5-2551.7-2741.8-2551.7-2734.8z"/>
	</g>
	<g>
		<path d="M-2577-2760.1c0,7-5.7,12.6-12.6,12.6c-7,0-12.6-5.7-12.6-12.6s5.7-12.6,12.6-12.6C-2582.6-2772.7-2577-2767-2577-2760.1z
			"/>
	</g>
</g>
<g>
	<g>
		<path d="M-2385.1-2729.5c0,5.8-4.7,10.5-10.5,10.5c-5.8,0-10.5-4.7-10.5-10.5c0-5.8,4.7-10.5,10.5-10.5
			C-2389.8-2740.1-2385.1-2735.3-2385.1-2729.5z"/>
	</g>
	<g>
		<path d="M-2385.1-2703.7c0,5.8-4.7,10.5-10.5,10.5c-5.8,0-10.5-4.7-10.5-10.5c0-5.8,4.7-10.5,10.5-10.5
			C-2389.8-2714.3-2385.1-2709.6-2385.1-2703.7z"/>
	</g>
	<g>
		<path d="M-2359.3-2701.4c0,5.8-4.7,10.5-10.5,10.5c-5.8,0-10.5-4.7-10.5-10.5c0-5.8,4.7-10.5,10.5-10.5
			C-2364-2711.9-2359.3-2707.2-2359.3-2701.4z"/>
	</g>
	<g>
		<path d="M-2385.1-2678c0,5.8-4.7,10.5-10.5,10.5c-5.8,0-10.5-4.7-10.5-10.5c0-5.8,4.7-10.5,10.5-10.5
			C-2389.8-2688.5-2385.1-2683.8-2385.1-2678z"/>
	</g>
	<g>
		<path d="M-2385.1-2832.6c0,5.8-4.7,10.5-10.5,10.5c-5.8,0-10.5-4.7-10.5-10.5c0-5.8,4.7-10.5,10.5-10.5
			C-2389.8-2843.2-2385.1-2838.5-2385.1-2832.6z"/>
	</g>
	<g>
		<path d="M-2385.1-2755.3c0,5.8-4.7,10.5-10.5,10.5c-5.8,0-10.5-4.7-10.5-10.5c0-5.8,4.7-10.5,10.5-10.5
			C-2389.8-2765.8-2385.1-2761.1-2385.1-2755.3z"/>
	</g>
	<g>
		<path d="M-2359.3-2754.1c0,5.8-4.7,10.5-10.5,10.5c-5.8,0-10.5-4.7-10.5-10.5c0-5.8,4.7-10.5,10.5-10.5
			C-2364-2764.7-2359.3-2759.9-2359.3-2754.1z"/>
	</g>
	<g>
		<path d="M-2359.3-2727.8c0,5.8-4.7,10.5-10.5,10.5c-5.8,0-10.5-4.7-10.5-10.5c0-5.8,4.7-10.5,10.5-10.5
			C-2364-2738.3-2359.3-2733.6-2359.3-2727.8z"/>
	</g>
	<g>
		<path d="M-2385.1-2781.1c0,5.8-4.7,10.5-10.5,10.5c-5.8,0-10.5-4.7-10.5-10.5c0-5.8,4.7-10.5,10.5-10.5
			C-2389.8-2791.6-2385.1-2786.9-2385.1-2781.1z"/>
	</g>
	<g>
		<path d="M-2359.3-2780.5c0,5.8-4.7,10.5-10.5,10.5c-5.8,0-10.5-4.7-10.5-10.5c0-5.8,4.7-10.5,10.5-10.5
			C-2364-2791-2359.3-2786.3-2359.3-2780.5z"/>
	</g>
	<g>
		<path d="M-2385.1-2806.8c0,5.8-4.7,10.5-10.5,10.5c-5.8,0-10.5-4.7-10.5-10.5c0-5.8,4.7-10.5,10.5-10.5
			C-2389.8-2817.4-2385.1-2812.7-2385.1-2806.8z"/>
	</g>
	<g>
		<path d="M-2359.3-2806.8c0,5.8-4.7,10.5-10.5,10.5c-5.8,0-10.5-4.7-10.5-10.5c0-5.8,4.7-10.5,10.5-10.5
			C-2364-2817.4-2359.3-2812.7-2359.3-2806.8z"/>
	</g>
	<g>
		<path d="M-2333.5-2755.3c0,5.8-4.7,10.5-10.5,10.5c-5.8,0-10.5-4.7-10.5-10.5c0-5.8,4.7-10.5,10.5-10.5
			C-2338.2-2765.8-2333.5-2761.1-2333.5-2755.3z"/>
	</g>
	<g>
		<path d="M-2333.5-2729.5c0,5.8-4.7,10.5-10.5,10.5c-5.8,0-10.5-4.7-10.5-10.5c0-5.8,4.7-10.5,10.5-10.5
			C-2338.2-2740.1-2333.5-2735.3-2333.5-2729.5z"/>
	</g>
	<g>
		<path d="M-2307.7-2755.3c0,5.8-4.7,10.5-10.5,10.5c-5.8,0-10.5-4.7-10.5-10.5c0-5.8,4.7-10.5,10.5-10.5
			C-2312.5-2765.8-2307.7-2761.1-2307.7-2755.3z"/>
	</g>
	<g>
		<path d="M-2333.5-2781.1c0,5.8-4.7,10.5-10.5,10.5c-5.8,0-10.5-4.7-10.5-10.5c0-5.8,4.7-10.5,10.5-10.5
			C-2338.2-2791.6-2333.5-2786.9-2333.5-2781.1z"/>
	</g>
</g>
<g>
	<g>
		<g>
			<path d="M-1107-2441c0,4-3.3,7.3-7.3,7.3s-7.3-3.3-7.3-7.3c0-4,3.3-7.3,7.3-7.3S-1107-2445-1107-2441z"/>
		</g>
		<g>
			<path d="M-1107-2423.1c0,4-3.3,7.3-7.3,7.3s-7.3-3.3-7.3-7.3s3.3-7.3,7.3-7.3S-1107-2427.2-1107-2423.1z"/>
		</g>
		<g>
			<path d="M-1089.1-2421.5c0,4-3.3,7.3-7.3,7.3c-4,0-7.3-3.3-7.3-7.3c0-4,3.3-7.3,7.3-7.3
				C-1092.4-2428.8-1089.1-2425.5-1089.1-2421.5z"/>
		</g>
		<g>
			<path d="M-1107-2405.2c0,4-3.3,7.3-7.3,7.3s-7.3-3.3-7.3-7.3c0-4,3.3-7.3,7.3-7.3S-1107-2409.3-1107-2405.2z"/>
		</g>
		<g>
			<path d="M-1107-2512.5c0,4-3.3,7.3-7.3,7.3s-7.3-3.3-7.3-7.3s3.3-7.3,7.3-7.3S-1107-2516.5-1107-2512.5z"/>
		</g>
		<g>
			<path d="M-1107-2458.9c0,4-3.3,7.3-7.3,7.3s-7.3-3.3-7.3-7.3c0-4,3.3-7.3,7.3-7.3S-1107-2462.9-1107-2458.9z"/>
		</g>
		<g>
			<path d="M-1089.1-2458c0,4-3.3,7.3-7.3,7.3c-4,0-7.3-3.3-7.3-7.3s3.3-7.3,7.3-7.3C-1092.4-2465.4-1089.1-2462.1-1089.1-2458z"/>
		</g>
		<g>
			<path d="M-1089.1-2439.8c0,4-3.3,7.3-7.3,7.3c-4,0-7.3-3.3-7.3-7.3c0-4,3.3-7.3,7.3-7.3
				C-1092.4-2447.1-1089.1-2443.8-1089.1-2439.8z"/>
		</g>
		<g>
			<path d="M-1107-2476.7c0,4-3.3,7.3-7.3,7.3s-7.3-3.3-7.3-7.3c0-4,3.3-7.3,7.3-7.3S-1107-2480.8-1107-2476.7z"/>
		</g>
		<g>
			<path d="M-1089.1-2476.3c0,4-3.3,7.3-7.3,7.3c-4,0-7.3-3.3-7.3-7.3c0-4,3.3-7.3,7.3-7.3
				C-1092.4-2483.6-1089.1-2480.4-1089.1-2476.3z"/>
		</g>
		<g>
			<path d="M-1107-2494.6c0,4-3.3,7.3-7.3,7.3s-7.3-3.3-7.3-7.3s3.3-7.3,7.3-7.3S-1107-2498.6-1107-2494.6z"/>
		</g>
		<g>
			<path d="M-1089.1-2494.6c0,4-3.3,7.3-7.3,7.3c-4,0-7.3-3.3-7.3-7.3s3.3-7.3,7.3-7.3C-1092.4-2501.9-1089.1-2498.6-1089.1-2494.6z
				"/>
		</g>
		<g>
			<path d="M-1071.3-2458.9c0,4-3.3,7.3-7.3,7.3c-4,0-7.3-3.3-7.3-7.3c0-4,3.3-7.3,7.3-7.3
				C-1074.5-2466.2-1071.3-2462.9-1071.3-2458.9z"/>
		</g>
		<g>
			<path d="M-1071.3-2441c0,4-3.3,7.3-7.3,7.3c-4,0-7.3-3.3-7.3-7.3c0-4,3.3-7.3,7.3-7.3C-1074.5-2448.3-1071.3-2445-1071.3-2441z"
				/>
		</g>
		<g>
			<path d="M-1053.4-2458.9c0,4-3.3,7.3-7.3,7.3c-4,0-7.3-3.3-7.3-7.3c0-4,3.3-7.3,7.3-7.3
				C-1056.7-2466.2-1053.4-2462.9-1053.4-2458.9z"/>
		</g>
		<g>
			<path d="M-1071.3-2476.7c0,4-3.3,7.3-7.3,7.3c-4,0-7.3-3.3-7.3-7.3c0-4,3.3-7.3,7.3-7.3
				C-1074.5-2484-1071.3-2480.8-1071.3-2476.7z"/>
		</g>
	</g>
	<g>
		<g>
			<path d="M-1178.6-2441c0,4-3.3,7.3-7.3,7.3c-4,0-7.3-3.3-7.3-7.3c0-4,3.3-7.3,7.3-7.3C-1181.9-2448.3-1178.6-2445-1178.6-2441z"
				/>
		</g>
		<g>
			<path d="M-1178.6-2423.1c0,4-3.3,7.3-7.3,7.3c-4,0-7.3-3.3-7.3-7.3s3.3-7.3,7.3-7.3C-1181.9-2430.4-1178.6-2427.2-1178.6-2423.1z
				"/>
		</g>
		<g>
			<path d="M-1160.7-2421.5c0,4-3.3,7.3-7.3,7.3s-7.3-3.3-7.3-7.3c0-4,3.3-7.3,7.3-7.3S-1160.7-2425.5-1160.7-2421.5z"/>
		</g>
		<g>
			<path d="M-1178.6-2405.2c0,4-3.3,7.3-7.3,7.3c-4,0-7.3-3.3-7.3-7.3c0-4,3.3-7.3,7.3-7.3
				C-1181.9-2412.6-1178.6-2409.3-1178.6-2405.2z"/>
		</g>
		<g>
			<path d="M-1178.6-2512.5c0,4-3.3,7.3-7.3,7.3c-4,0-7.3-3.3-7.3-7.3s3.3-7.3,7.3-7.3C-1181.9-2519.8-1178.6-2516.5-1178.6-2512.5z
				"/>
		</g>
		<g>
			<path d="M-1178.6-2458.9c0,4-3.3,7.3-7.3,7.3c-4,0-7.3-3.3-7.3-7.3c0-4,3.3-7.3,7.3-7.3
				C-1181.9-2466.2-1178.6-2462.9-1178.6-2458.9z"/>
		</g>
		<g>
			<path d="M-1160.7-2458c0,4-3.3,7.3-7.3,7.3s-7.3-3.3-7.3-7.3s3.3-7.3,7.3-7.3S-1160.7-2462.1-1160.7-2458z"/>
		</g>
		<g>
			<path d="M-1160.7-2439.8c0,4-3.3,7.3-7.3,7.3s-7.3-3.3-7.3-7.3c0-4,3.3-7.3,7.3-7.3S-1160.7-2443.8-1160.7-2439.8z"/>
		</g>
		<g>
			<path d="M-1178.6-2476.7c0,4-3.3,7.3-7.3,7.3c-4,0-7.3-3.3-7.3-7.3c0-4,3.3-7.3,7.3-7.3
				C-1181.9-2484-1178.6-2480.8-1178.6-2476.7z"/>
		</g>
		<g>
			<path d="M-1160.7-2476.3c0,4-3.3,7.3-7.3,7.3s-7.3-3.3-7.3-7.3c0-4,3.3-7.3,7.3-7.3S-1160.7-2480.4-1160.7-2476.3z"/>
		</g>
		<g>
			<path d="M-1178.6-2494.6c0,4-3.3,7.3-7.3,7.3c-4,0-7.3-3.3-7.3-7.3s3.3-7.3,7.3-7.3C-1181.9-2501.9-1178.6-2498.6-1178.6-2494.6z
				"/>
		</g>
		<g>
			<path d="M-1160.7-2494.6c0,4-3.3,7.3-7.3,7.3s-7.3-3.3-7.3-7.3s3.3-7.3,7.3-7.3S-1160.7-2498.6-1160.7-2494.6z"/>
		</g>
		<g>
			<path d="M-1142.9-2458.9c0,4-3.3,7.3-7.3,7.3c-4,0-7.3-3.3-7.3-7.3c0-4,3.3-7.3,7.3-7.3
				C-1146.1-2466.2-1142.9-2462.9-1142.9-2458.9z"/>
		</g>
		<g>
			<path d="M-1142.9-2441c0,4-3.3,7.3-7.3,7.3c-4,0-7.3-3.3-7.3-7.3c0-4,3.3-7.3,7.3-7.3C-1146.1-2448.3-1142.9-2445-1142.9-2441z"
				/>
		</g>
		<g>
			<path d="M-1125-2458.9c0,4-3.3,7.3-7.3,7.3c-4,0-7.3-3.3-7.3-7.3c0-4,3.3-7.3,7.3-7.3C-1128.3-2466.2-1125-2462.9-1125-2458.9z"
				/>
		</g>
		<g>
			<path d="M-1142.9-2476.7c0,4-3.3,7.3-7.3,7.3c-4,0-7.3-3.3-7.3-7.3c0-4,3.3-7.3,7.3-7.3
				C-1146.1-2484-1142.9-2480.8-1142.9-2476.7z"/>
		</g>
	</g>
</g>
<g>
	<g>
		<g>
			<path d="M-2394.7-1839.3c0,4.5-3.7,8.2-8.2,8.2c-4.5,0-8.2-3.7-8.2-8.2c0-4.5,3.7-8.2,8.2-8.2
				C-2398.4-1847.5-2394.7-1843.8-2394.7-1839.3z"/>
		</g>
		<g>
			<path d="M-2394.7-1819.3c0,4.5-3.7,8.2-8.2,8.2c-4.5,0-8.2-3.7-8.2-8.2c0-4.5,3.7-8.2,8.2-8.2
				C-2398.4-1827.5-2394.7-1823.8-2394.7-1819.3z"/>
		</g>
		<g>
			<path d="M-2374.7-1817.4c0,4.5-3.7,8.2-8.2,8.2s-8.2-3.7-8.2-8.2c0-4.5,3.7-8.2,8.2-8.2S-2374.7-1822-2374.7-1817.4z"/>
		</g>
		<g>
			<path d="M-2394.7-1799.2c0,4.5-3.7,8.2-8.2,8.2c-4.5,0-8.2-3.7-8.2-8.2c0-4.5,3.7-8.2,8.2-8.2
				C-2398.4-1807.4-2394.7-1803.8-2394.7-1799.2z"/>
		</g>
		<g>
			<path d="M-2394.7-1919.5c0,4.5-3.7,8.2-8.2,8.2c-4.5,0-8.2-3.7-8.2-8.2c0-4.5,3.7-8.2,8.2-8.2
				C-2398.4-1927.7-2394.7-1924-2394.7-1919.5z"/>
		</g>
		<g>
			<path d="M-2394.7-1859.3c0,4.5-3.7,8.2-8.2,8.2c-4.5,0-8.2-3.7-8.2-8.2c0-4.5,3.7-8.2,8.2-8.2
				C-2398.4-1867.5-2394.7-1863.9-2394.7-1859.3z"/>
		</g>
		<g>
			<path d="M-2374.7-1858.4c0,4.5-3.7,8.2-8.2,8.2s-8.2-3.7-8.2-8.2c0-4.5,3.7-8.2,8.2-8.2S-2374.7-1863-2374.7-1858.4z"/>
		</g>
		<g>
			<path d="M-2374.7-1837.9c0,4.5-3.7,8.2-8.2,8.2s-8.2-3.7-8.2-8.2c0-4.5,3.7-8.2,8.2-8.2S-2374.7-1842.5-2374.7-1837.9z"/>
		</g>
		<g>
			<path d="M-2394.7-1879.4c0,4.5-3.7,8.2-8.2,8.2c-4.5,0-8.2-3.7-8.2-8.2c0-4.5,3.7-8.2,8.2-8.2
				C-2398.4-1887.6-2394.7-1883.9-2394.7-1879.4z"/>
		</g>
		<g>
			<path d="M-2374.7-1878.9c0,4.5-3.7,8.2-8.2,8.2s-8.2-3.7-8.2-8.2c0-4.5,3.7-8.2,8.2-8.2S-2374.7-1883.5-2374.7-1878.9z"/>
		</g>
		<g>
			<path d="M-2394.7-1899.4c0,4.5-3.7,8.2-8.2,8.2c-4.5,0-8.2-3.7-8.2-8.2c0-4.5,3.7-8.2,8.2-8.2
				C-2398.4-1907.6-2394.7-1904-2394.7-1899.4z"/>
		</g>
		<g>
			<path d="M-2374.7-1899.4c0,4.5-3.7,8.2-8.2,8.2s-8.2-3.7-8.2-8.2c0-4.5,3.7-8.2,8.2-8.2S-2374.7-1904-2374.7-1899.4z"/>
		</g>
		<g>
			<path d="M-2354.6-1859.3c0,4.5-3.7,8.2-8.2,8.2c-4.5,0-8.2-3.7-8.2-8.2c0-4.5,3.7-8.2,8.2-8.2
				C-2358.3-1867.5-2354.6-1863.9-2354.6-1859.3z"/>
		</g>
		<g>
			<path d="M-2354.6-1839.3c0,4.5-3.7,8.2-8.2,8.2c-4.5,0-8.2-3.7-8.2-8.2c0-4.5,3.7-8.2,8.2-8.2
				C-2358.3-1847.5-2354.6-1843.8-2354.6-1839.3z"/>
		</g>
		<g>
			<path d="M-2334.6-1859.3c0,4.5-3.7,8.2-8.2,8.2s-8.2-3.7-8.2-8.2c0-4.5,3.7-8.2,8.2-8.2S-2334.6-1863.9-2334.6-1859.3z"/>
		</g>
		<g>
			<path d="M-2354.6-1879.4c0,4.5-3.7,8.2-8.2,8.2c-4.5,0-8.2-3.7-8.2-8.2c0-4.5,3.7-8.2,8.2-8.2
				C-2358.3-1887.6-2354.6-1883.9-2354.6-1879.4z"/>
		</g>
	</g>
	<g>
		<g>
			<path d="M-2208.7-1839.3c0,4.5-3.7,8.2-8.2,8.2s-8.2-3.7-8.2-8.2c0-4.5,3.7-8.2,8.2-8.2S-2208.7-1843.8-2208.7-1839.3z"/>
		</g>
		<g>
			<path d="M-2208.7-1819.3c0,4.5-3.7,8.2-8.2,8.2s-8.2-3.7-8.2-8.2c0-4.5,3.7-8.2,8.2-8.2S-2208.7-1823.8-2208.7-1819.3z"/>
		</g>
		<g>
			<ellipse transform="matrix(0.2462 -0.9692 0.9692 0.2462 105.5502 -3499.1746)" cx="-2196.9" cy="-1817.4" rx="8.2" ry="8.2"/>
		</g>
		<g>
			<path d="M-2208.7-1799.2c0,4.5-3.7,8.2-8.2,8.2s-8.2-3.7-8.2-8.2c0-4.5,3.7-8.2,8.2-8.2S-2208.7-1803.8-2208.7-1799.2z"/>
		</g>
		<g>
			<path d="M-2208.7-1919.5c0,4.5-3.7,8.2-8.2,8.2s-8.2-3.7-8.2-8.2c0-4.5,3.7-8.2,8.2-8.2S-2208.7-1924-2208.7-1919.5z"/>
		</g>
		<g>
			<path d="M-2208.7-1859.3c0,4.5-3.7,8.2-8.2,8.2s-8.2-3.7-8.2-8.2c0-4.5,3.7-8.2,8.2-8.2S-2208.7-1863.9-2208.7-1859.3z"/>
		</g>
		<g>
			<path d="M-2188.7-1858.4c0,4.5-3.7,8.2-8.2,8.2c-4.5,0-8.2-3.7-8.2-8.2c0-4.5,3.7-8.2,8.2-8.2
				C-2192.3-1866.6-2188.7-1863-2188.7-1858.4z"/>
		</g>
		<g>
			<ellipse transform="matrix(0.2462 -0.9692 0.9692 0.2462 125.4143 -3514.623)" cx="-2196.9" cy="-1837.9" rx="8.2" ry="8.2"/>
		</g>
		<g>
			<path d="M-2208.7-1879.4c0,4.5-3.7,8.2-8.2,8.2s-8.2-3.7-8.2-8.2c0-4.5,3.7-8.2,8.2-8.2S-2208.7-1883.9-2208.7-1879.4z"/>
		</g>
		<g>
			
				<ellipse transform="matrix(1.244831e-02 -0.9999 0.9999 1.244831e-02 -290.7388 -4052.2441)" cx="-2196.9" cy="-1878.9" rx="8.2" ry="8.2"/>
		</g>
		<g>
			<path d="M-2208.7-1899.4c0,4.5-3.7,8.2-8.2,8.2s-8.2-3.7-8.2-8.2c0-4.5,3.7-8.2,8.2-8.2S-2208.7-1904-2208.7-1899.4z"/>
		</g>
		<g>
			<path d="M-2188.7-1899.4c0,4.5-3.7,8.2-8.2,8.2c-4.5,0-8.2-3.7-8.2-8.2c0-4.5,3.7-8.2,8.2-8.2
				C-2192.3-1907.6-2188.7-1904-2188.7-1899.4z"/>
		</g>
		<g>
			<path d="M-2168.6-1859.3c0,4.5-3.7,8.2-8.2,8.2c-4.5,0-8.2-3.7-8.2-8.2c0-4.5,3.7-8.2,8.2-8.2
				C-2172.3-1867.5-2168.6-1863.9-2168.6-1859.3z"/>
		</g>
		<g>
			<path d="M-2168.6-1839.3c0,4.5-3.7,8.2-8.2,8.2c-4.5,0-8.2-3.7-8.2-8.2c0-4.5,3.7-8.2,8.2-8.2
				C-2172.3-1847.5-2168.6-1843.8-2168.6-1839.3z"/>
		</g>
		<g>
			<path d="M-2148.6-1859.3c0,4.5-3.7,8.2-8.2,8.2s-8.2-3.7-8.2-8.2c0-4.5,3.7-8.2,8.2-8.2S-2148.6-1863.9-2148.6-1859.3z"/>
		</g>
		<g>
			<path d="M-2168.6-1879.4c0,4.5-3.7,8.2-8.2,8.2c-4.5,0-8.2-3.7-8.2-8.2c0-4.5,3.7-8.2,8.2-8.2
				C-2172.3-1887.6-2168.6-1883.9-2168.6-1879.4z"/>
		</g>
	</g>
	<g>
		<g>
			<path d="M-2301.7-1839.3c0,4.5-3.7,8.2-8.2,8.2s-8.2-3.7-8.2-8.2c0-4.5,3.7-8.2,8.2-8.2S-2301.7-1843.8-2301.7-1839.3z"/>
		</g>
		<g>
			<path d="M-2301.7-1819.3c0,4.5-3.7,8.2-8.2,8.2s-8.2-3.7-8.2-8.2c0-4.5,3.7-8.2,8.2-8.2S-2301.7-1823.8-2301.7-1819.3z"/>
		</g>
		<g>
			<path d="M-2281.7-1817.4c0,4.5-3.7,8.2-8.2,8.2c-4.5,0-8.2-3.7-8.2-8.2c0-4.5,3.7-8.2,8.2-8.2
				C-2285.3-1825.6-2281.7-1822-2281.7-1817.4z"/>
		</g>
		<g>
			<path d="M-2301.7-1799.2c0,4.5-3.7,8.2-8.2,8.2s-8.2-3.7-8.2-8.2c0-4.5,3.7-8.2,8.2-8.2S-2301.7-1803.8-2301.7-1799.2z"/>
		</g>
		<g>
			<path d="M-2301.7-1919.5c0,4.5-3.7,8.2-8.2,8.2s-8.2-3.7-8.2-8.2c0-4.5,3.7-8.2,8.2-8.2S-2301.7-1924-2301.7-1919.5z"/>
		</g>
		<g>
			<path d="M-2301.7-1859.3c0,4.5-3.7,8.2-8.2,8.2s-8.2-3.7-8.2-8.2c0-4.5,3.7-8.2,8.2-8.2S-2301.7-1863.9-2301.7-1859.3z"/>
		</g>
		<g>
			<path d="M-2281.7-1858.4c0,4.5-3.7,8.2-8.2,8.2c-4.5,0-8.2-3.7-8.2-8.2c0-4.5,3.7-8.2,8.2-8.2
				C-2285.3-1866.6-2281.7-1863-2281.7-1858.4z"/>
		</g>
		<g>
			<path d="M-2281.7-1837.9c0,4.5-3.7,8.2-8.2,8.2c-4.5,0-8.2-3.7-8.2-8.2c0-4.5,3.7-8.2,8.2-8.2
				C-2285.3-1846.1-2281.7-1842.5-2281.7-1837.9z"/>
		</g>
		<g>
			<path d="M-2301.7-1879.4c0,4.5-3.7,8.2-8.2,8.2s-8.2-3.7-8.2-8.2c0-4.5,3.7-8.2,8.2-8.2S-2301.7-1883.9-2301.7-1879.4z"/>
		</g>
		<g>
			<path d="M-2281.7-1878.9c0,4.5-3.7,8.2-8.2,8.2c-4.5,0-8.2-3.7-8.2-8.2c0-4.5,3.7-8.2,8.2-8.2
				C-2285.3-1887.1-2281.7-1883.5-2281.7-1878.9z"/>
		</g>
		<g>
			<path d="M-2301.7-1899.4c0,4.5-3.7,8.2-8.2,8.2s-8.2-3.7-8.2-8.2c0-4.5,3.7-8.2,8.2-8.2S-2301.7-1904-2301.7-1899.4z"/>
		</g>
		<g>
			<path d="M-2281.7-1899.4c0,4.5-3.7,8.2-8.2,8.2c-4.5,0-8.2-3.7-8.2-8.2c0-4.5,3.7-8.2,8.2-8.2
				C-2285.3-1907.6-2281.7-1904-2281.7-1899.4z"/>
		</g>
		<g>
			<path d="M-2261.6-1859.3c0,4.5-3.7,8.2-8.2,8.2c-4.5,0-8.2-3.7-8.2-8.2c0-4.5,3.7-8.2,8.2-8.2
				C-2265.3-1867.5-2261.6-1863.9-2261.6-1859.3z"/>
		</g>
		<g>
			<path d="M-2261.6-1839.3c0,4.5-3.7,8.2-8.2,8.2c-4.5,0-8.2-3.7-8.2-8.2c0-4.5,3.7-8.2,8.2-8.2
				C-2265.3-1847.5-2261.6-1843.8-2261.6-1839.3z"/>
		</g>
		<g>
			<path d="M-2241.6-1859.3c0,4.5-3.7,8.2-8.2,8.2s-8.2-3.7-8.2-8.2c0-4.5,3.7-8.2,8.2-8.2S-2241.6-1863.9-2241.6-1859.3z"/>
		</g>
		<g>
			<path d="M-2261.6-1879.4c0,4.5-3.7,8.2-8.2,8.2c-4.5,0-8.2-3.7-8.2-8.2c0-4.5,3.7-8.2,8.2-8.2
				C-2265.3-1887.6-2261.6-1883.9-2261.6-1879.4z"/>
		</g>
	</g>
</g>
<g>
	<g>
		<path d="M-1754.8-3019.6c0,5.6-4.5,10.1-10.1,10.1c-5.6,0-10.1-4.5-10.1-10.1s4.5-10.1,10.1-10.1
			C-1759.3-3029.7-1754.8-3025.1-1754.8-3019.6z"/>
	</g>
	<g>
		<path d="M-1730-3017.3c0,5.6-4.5,10.1-10.1,10.1c-5.6,0-10.1-4.5-10.1-10.1c0-5.6,4.5-10.1,10.1-10.1
			C-1734.5-3027.4-1730-3022.9-1730-3017.3z"/>
	</g>
	<g>
		<path d="M-1779.6-2997c0,5.6-4.5,10.1-10.1,10.1c-5.6,0-10.1-4.5-10.1-10.1c0-5.6,4.5-10.1,10.1-10.1
			C-1784.1-3007.2-1779.6-3002.6-1779.6-2997z"/>
	</g>
	<g>
		<path d="M-1754.8-2994.8c0,5.6-4.5,10.1-10.1,10.1c-5.6,0-10.1-4.5-10.1-10.1c0-5.6,4.5-10.1,10.1-10.1
			C-1759.3-3004.9-1754.8-3000.4-1754.8-2994.8z"/>
	</g>
	<g>
		<path d="M-1779.6-3145.7c0,5.6-4.5,10.1-10.1,10.1c-5.6,0-10.1-4.5-10.1-10.1c0-5.6,4.5-10.1,10.1-10.1
			C-1784.1-3155.8-1779.6-3151.3-1779.6-3145.7z"/>
	</g>
	<g>
		<path d="M-1754.8-3143.5c0,5.6-4.5,10.1-10.1,10.1c-5.6,0-10.1-4.5-10.1-10.1s4.5-10.1,10.1-10.1
			C-1759.3-3153.6-1754.8-3149.1-1754.8-3143.5z"/>
	</g>
	<g>
		<path d="M-1730-3042.6c0,5.6-4.5,10.1-10.1,10.1c-5.6,0-10.1-4.5-10.1-10.1c0-5.6,4.5-10.1,10.1-10.1
			C-1734.5-3052.8-1730-3048.2-1730-3042.6z"/>
	</g>
	<g>
		<path d="M-1730-3093.3c0,5.6-4.5,10.1-10.1,10.1c-5.6,0-10.1-4.5-10.1-10.1c0-5.6,4.5-10.1,10.1-10.1
			C-1734.5-3103.5-1730-3098.9-1730-3093.3z"/>
	</g>
	<g>
		<path d="M-1754.8-3118.7c0,5.6-4.5,10.1-10.1,10.1c-5.6,0-10.1-4.5-10.1-10.1c0-5.6,4.5-10.1,10.1-10.1
			C-1759.3-3128.8-1754.8-3124.3-1754.8-3118.7z"/>
	</g>
	<g>
		<path d="M-1730-3118.7c0,5.6-4.5,10.1-10.1,10.1c-5.6,0-10.1-4.5-10.1-10.1c0-5.6,4.5-10.1,10.1-10.1
			C-1734.5-3128.8-1730-3124.3-1730-3118.7z"/>
	</g>
	<g>
		<path d="M-1705.2-3069.1c0,5.6-4.5,10.1-10.1,10.1c-5.6,0-10.1-4.5-10.1-10.1c0-5.6,4.5-10.1,10.1-10.1
			C-1709.8-3079.3-1705.2-3074.7-1705.2-3069.1z"/>
	</g>
	<g>
		<path d="M-1705.2-3044.3c0,5.6-4.5,10.1-10.1,10.1c-5.6,0-10.1-4.5-10.1-10.1c0-5.6,4.5-10.1,10.1-10.1
			C-1709.8-3054.5-1705.2-3049.9-1705.2-3044.3z"/>
	</g>
	<g>
		<path d="M-1680.4-3069.1c0,5.6-4.5,10.1-10.1,10.1c-5.6,0-10.1-4.5-10.1-10.1c0-5.6,4.5-10.1,10.1-10.1
			C-1685-3079.3-1680.4-3074.7-1680.4-3069.1z"/>
	</g>
	<g>
		<path d="M-1705.2-3093.9c0,5.6-4.5,10.1-10.1,10.1c-5.6,0-10.1-4.5-10.1-10.1c0-5.6,4.5-10.1,10.1-10.1
			C-1709.8-3104-1705.2-3099.5-1705.2-3093.9z"/>
	</g>
</g>
<g>
	<g>
		<g>
			<path d="M-1809.1-2426.8c0,3.5-2.9,6.4-6.4,6.4c-3.5,0-6.4-2.9-6.4-6.4c0-3.5,2.9-6.4,6.4-6.4
				C-1812-2433.2-1809.1-2430.3-1809.1-2426.8z"/>
		</g>
		<g>
			<path d="M-1793.4-2425.4c0,3.5-2.9,6.4-6.4,6.4c-3.5,0-6.4-2.9-6.4-6.4c0-3.5,2.9-6.4,6.4-6.4
				C-1796.3-2431.8-1793.4-2428.9-1793.4-2425.4z"/>
		</g>
		<g>
			<path d="M-1824.8-2412.5c0,3.5-2.9,6.4-6.4,6.4c-3.5,0-6.4-2.9-6.4-6.4c0-3.5,2.9-6.4,6.4-6.4
				C-1827.6-2418.9-1824.8-2416.1-1824.8-2412.5z"/>
		</g>
		<g>
			<path d="M-1809.1-2411.1c0,3.5-2.9,6.4-6.4,6.4c-3.5,0-6.4-2.9-6.4-6.4c0-3.5,2.9-6.4,6.4-6.4
				C-1812-2417.5-1809.1-2414.6-1809.1-2411.1z"/>
		</g>
		<g>
			<path d="M-1824.8-2506.6c0,3.5-2.9,6.4-6.4,6.4c-3.5,0-6.4-2.9-6.4-6.4c0-3.5,2.9-6.4,6.4-6.4
				C-1827.6-2513-1824.8-2510.1-1824.8-2506.6z"/>
		</g>
		<g>
			<path d="M-1809.1-2505.2c0,3.5-2.9,6.4-6.4,6.4c-3.5,0-6.4-2.9-6.4-6.4c0-3.5,2.9-6.4,6.4-6.4
				C-1812-2511.6-1809.1-2508.7-1809.1-2505.2z"/>
		</g>
		<g>
			<path d="M-1793.4-2441.4c0,3.5-2.9,6.4-6.4,6.4c-3.5,0-6.4-2.9-6.4-6.4c0-3.5,2.9-6.4,6.4-6.4
				C-1796.3-2447.8-1793.4-2444.9-1793.4-2441.4z"/>
		</g>
		<g>
			<path d="M-1793.4-2473.5c0,3.5-2.9,6.4-6.4,6.4c-3.5,0-6.4-2.9-6.4-6.4c0-3.5,2.9-6.4,6.4-6.4
				C-1796.3-2479.9-1793.4-2477-1793.4-2473.5z"/>
		</g>
		<g>
			<path d="M-1809.1-2489.5c0,3.5-2.9,6.4-6.4,6.4c-3.5,0-6.4-2.9-6.4-6.4c0-3.5,2.9-6.4,6.4-6.4
				C-1812-2495.9-1809.1-2493-1809.1-2489.5z"/>
		</g>
		<g>
			<circle cx="-1799.8" cy="-2489.5" r="6.4"/>
		</g>
		<g>
			<path d="M-1777.7-2458.1c0,3.5-2.9,6.4-6.4,6.4s-6.4-2.9-6.4-6.4s2.9-6.4,6.4-6.4S-1777.7-2461.7-1777.7-2458.1z"/>
		</g>
		<g>
			<path d="M-1777.7-2442.5c0,3.5-2.9,6.4-6.4,6.4s-6.4-2.9-6.4-6.4c0-3.5,2.9-6.4,6.4-6.4S-1777.7-2446-1777.7-2442.5z"/>
		</g>
		<g>
			<path d="M-1762.1-2458.1c0,3.5-2.9,6.4-6.4,6.4c-3.5,0-6.4-2.9-6.4-6.4s2.9-6.4,6.4-6.4
				C-1764.9-2464.6-1762.1-2461.7-1762.1-2458.1z"/>
		</g>
		<g>
			<path d="M-1777.7-2473.8c0,3.5-2.9,6.4-6.4,6.4s-6.4-2.9-6.4-6.4c0-3.5,2.9-6.4,6.4-6.4S-1777.7-2477.4-1777.7-2473.8z"/>
		</g>
	</g>
	<g>
		<g>
			<path d="M-1751.1-2426.8c0,3.5-2.9,6.4-6.4,6.4c-3.5,0-6.4-2.9-6.4-6.4c0-3.5,2.9-6.4,6.4-6.4
				C-1754-2433.2-1751.1-2430.3-1751.1-2426.8z"/>
		</g>
		<g>
			<path d="M-1735.4-2425.4c0,3.5-2.9,6.4-6.4,6.4c-3.5,0-6.4-2.9-6.4-6.4c0-3.5,2.9-6.4,6.4-6.4
				C-1738.3-2431.8-1735.4-2428.9-1735.4-2425.4z"/>
		</g>
		<g>
			<path d="M-1766.8-2412.5c0,3.5-2.9,6.4-6.4,6.4c-3.5,0-6.4-2.9-6.4-6.4c0-3.5,2.9-6.4,6.4-6.4
				C-1769.7-2418.9-1766.8-2416.1-1766.8-2412.5z"/>
		</g>
		<g>
			<path d="M-1751.1-2411.1c0,3.5-2.9,6.4-6.4,6.4c-3.5,0-6.4-2.9-6.4-6.4c0-3.5,2.9-6.4,6.4-6.4
				C-1754-2417.5-1751.1-2414.6-1751.1-2411.1z"/>
		</g>
		<g>
			<path d="M-1766.8-2506.6c0,3.5-2.9,6.4-6.4,6.4c-3.5,0-6.4-2.9-6.4-6.4c0-3.5,2.9-6.4,6.4-6.4
				C-1769.7-2513-1766.8-2510.1-1766.8-2506.6z"/>
		</g>
		<g>
			<path d="M-1751.1-2505.2c0,3.5-2.9,6.4-6.4,6.4c-3.5,0-6.4-2.9-6.4-6.4c0-3.5,2.9-6.4,6.4-6.4
				C-1754-2511.6-1751.1-2508.7-1751.1-2505.2z"/>
		</g>
		<g>
			<path d="M-1735.4-2441.4c0,3.5-2.9,6.4-6.4,6.4c-3.5,0-6.4-2.9-6.4-6.4c0-3.5,2.9-6.4,6.4-6.4
				C-1738.3-2447.8-1735.4-2444.9-1735.4-2441.4z"/>
		</g>
		<g>
			<path d="M-1735.4-2473.5c0,3.5-2.9,6.4-6.4,6.4c-3.5,0-6.4-2.9-6.4-6.4c0-3.5,2.9-6.4,6.4-6.4
				C-1738.3-2479.9-1735.4-2477-1735.4-2473.5z"/>
		</g>
		<g>
			<path d="M-1751.1-2489.5c0,3.5-2.9,6.4-6.4,6.4c-3.5,0-6.4-2.9-6.4-6.4c0-3.5,2.9-6.4,6.4-6.4
				C-1754-2495.9-1751.1-2493-1751.1-2489.5z"/>
		</g>
		<g>
			<path d="M-1735.4-2489.5c0,3.5-2.9,6.4-6.4,6.4c-3.5,0-6.4-2.9-6.4-6.4c0-3.5,2.9-6.4,6.4-6.4
				C-1738.3-2495.9-1735.4-2493-1735.4-2489.5z"/>
		</g>
		<g>
			<path d="M-1719.7-2458.1c0,3.5-2.9,6.4-6.4,6.4c-3.5,0-6.4-2.9-6.4-6.4s2.9-6.4,6.4-6.4
				C-1722.6-2464.6-1719.7-2461.7-1719.7-2458.1z"/>
		</g>
		<g>
			<path d="M-1719.7-2442.5c0,3.5-2.9,6.4-6.4,6.4c-3.5,0-6.4-2.9-6.4-6.4c0-3.5,2.9-6.4,6.4-6.4
				C-1722.6-2448.9-1719.7-2446-1719.7-2442.5z"/>
		</g>
		<g>
			<path d="M-1704.1-2458.1c0,3.5-2.9,6.4-6.4,6.4c-3.5,0-6.4-2.9-6.4-6.4s2.9-6.4,6.4-6.4
				C-1706.9-2464.6-1704.1-2461.7-1704.1-2458.1z"/>
		</g>
		<g>
			<path d="M-1719.7-2473.8c0,3.5-2.9,6.4-6.4,6.4c-3.5,0-6.4-2.9-6.4-6.4c0-3.5,2.9-6.4,6.4-6.4
				C-1722.6-2480.2-1719.7-2477.4-1719.7-2473.8z"/>
		</g>
	</g>
	<g>
		<g>
			<path d="M-1689.7-2426.8c0,3.5-2.9,6.4-6.4,6.4c-3.5,0-6.4-2.9-6.4-6.4c0-3.5,2.9-6.4,6.4-6.4
				C-1692.6-2433.2-1689.7-2430.3-1689.7-2426.8z"/>
		</g>
		<g>
			<path d="M-1674-2425.4c0,3.5-2.9,6.4-6.4,6.4c-3.5,0-6.4-2.9-6.4-6.4c0-3.5,2.9-6.4,6.4-6.4
				C-1676.9-2431.8-1674-2428.9-1674-2425.4z"/>
		</g>
		<g>
			<path d="M-1705.4-2412.5c0,3.5-2.9,6.4-6.4,6.4s-6.4-2.9-6.4-6.4c0-3.5,2.9-6.4,6.4-6.4S-1705.4-2416.1-1705.4-2412.5z"/>
		</g>
		<g>
			<path d="M-1689.7-2411.1c0,3.5-2.9,6.4-6.4,6.4c-3.5,0-6.4-2.9-6.4-6.4c0-3.5,2.9-6.4,6.4-6.4
				C-1692.6-2417.5-1689.7-2414.6-1689.7-2411.1z"/>
		</g>
		<g>
			<path d="M-1705.4-2506.6c0,3.5-2.9,6.4-6.4,6.4s-6.4-2.9-6.4-6.4c0-3.5,2.9-6.4,6.4-6.4S-1705.4-2510.1-1705.4-2506.6z"/>
		</g>
		<g>
			<path d="M-1689.7-2505.2c0,3.5-2.9,6.4-6.4,6.4c-3.5,0-6.4-2.9-6.4-6.4c0-3.5,2.9-6.4,6.4-6.4
				C-1692.6-2511.6-1689.7-2508.7-1689.7-2505.2z"/>
		</g>
		<g>
			<path d="M-1674-2441.4c0,3.5-2.9,6.4-6.4,6.4c-3.5,0-6.4-2.9-6.4-6.4c0-3.5,2.9-6.4,6.4-6.4
				C-1676.9-2447.8-1674-2444.9-1674-2441.4z"/>
		</g>
		<g>
			<path d="M-1674-2473.5c0,3.5-2.9,6.4-6.4,6.4c-3.5,0-6.4-2.9-6.4-6.4c0-3.5,2.9-6.4,6.4-6.4
				C-1676.9-2479.9-1674-2477-1674-2473.5z"/>
		</g>
		<g>
			<path d="M-1689.7-2489.5c0,3.5-2.9,6.4-6.4,6.4c-3.5,0-6.4-2.9-6.4-6.4c0-3.5,2.9-6.4,6.4-6.4
				C-1692.6-2495.9-1689.7-2493-1689.7-2489.5z"/>
		</g>
		<g>
			<path d="M-1674-2489.5c0,3.5-2.9,6.4-6.4,6.4c-3.5,0-6.4-2.9-6.4-6.4c0-3.5,2.9-6.4,6.4-6.4
				C-1676.9-2495.9-1674-2493-1674-2489.5z"/>
		</g>
		<g>
			<path d="M-1658.3-2458.1c0,3.5-2.9,6.4-6.4,6.4s-6.4-2.9-6.4-6.4s2.9-6.4,6.4-6.4S-1658.3-2461.7-1658.3-2458.1z"/>
		</g>
		<g>
			<path d="M-1658.3-2442.5c0,3.5-2.9,6.4-6.4,6.4s-6.4-2.9-6.4-6.4c0-3.5,2.9-6.4,6.4-6.4S-1658.3-2446-1658.3-2442.5z"/>
		</g>
		<g>
			<path d="M-1642.7-2458.1c0,3.5-2.9,6.4-6.4,6.4c-3.5,0-6.4-2.9-6.4-6.4s2.9-6.4,6.4-6.4
				C-1645.5-2464.6-1642.7-2461.7-1642.7-2458.1z"/>
		</g>
		<g>
			<path d="M-1658.3-2473.8c0,3.5-2.9,6.4-6.4,6.4s-6.4-2.9-6.4-6.4c0-3.5,2.9-6.4,6.4-6.4S-1658.3-2477.4-1658.3-2473.8z"/>
		</g>
	</g>
</g>
<g>
	<path d="M-2091.2-3004.4l153.5-65.8l-153.5-65.8c14.6,21.9,29.2,43.9,43.9,65.8C-2061.9-3048.3-2076.6-3026.4-2091.2-3004.4z"/>
</g>
<g>
	<path d="M-2125.3-2680l153.5-65.8l-153.5-65.8c0.1,0.2,0.3,0.4,0.4,0.7c26.9,39.5,26.9,90.8,0,130.3
		C-2125-2680.4-2125.2-2680.2-2125.3-2680z"/>
</g>
<g>
	<g>
		<path d="M-1848.7-1819.8l92.2-39.5l-92.2-39.5c0.1,0.1,0.2,0.3,0.3,0.4c16.2,23.7,16.2,54.6,0,78.3
			C-1848.5-1820.1-1848.6-1819.9-1848.7-1819.8z"/>
	</g>
	<g>
		<path d="M-1940.5-1819.8l92.2-39.5l-92.2-39.5c0.1,0.1,0.2,0.3,0.3,0.4c16.2,23.7,16.2,54.6,0,78.3
			C-1940.3-1820.1-1940.4-1819.9-1940.5-1819.8z"/>
	</g>
	<g>
		<path d="M-2032.2-1819.8l92.2-39.5l-92.2-39.5c0.1,0.1,0.2,0.3,0.3,0.4c16.2,23.7,16.2,54.6,0,78.3
			C-2032-1820.1-2032.1-1819.9-2032.2-1819.8z"/>
	</g>
</g>
<g>
	<path d="M-2766.4-1765.8l35.6-39.6c30.1-32.8,30.1-75.1,0-107.8l-0.6-0.7l-35-39l202,93.5L-2766.4-1765.8z M-2694.1-1895.7
		c9.8,23.6,9.8,49.1,0,72.8l78.6-36.4L-2694.1-1895.7z"/>
</g>
<g>
	<g>
		<path d="M-2107.1-2375.2l12.9-5.5c31.1-13.3,52.2-43.6,52.3-77.5c0-0.4,0-0.8,0-1.3c-0.1-33.8-21.2-64.1-52.3-77.5l-12.9-5.5
			c0,0,0,0,0,0C-2072.1-2491.9-2072.1-2425.8-2107.1-2375.2C-2107.1-2375.2-2107.1-2375.2-2107.1-2375.2z"/>
	</g>
	<g>
		<path d="M-2055.2-2375.2l12.9-5.5c31.1-13.3,52.2-43.6,52.3-77.5c0-0.4,0-0.8,0-1.3c-0.1-33.8-21.2-64.1-52.3-77.5l-12.9-5.5
			c0,0,0,0,0,0C-2020.2-2491.9-2020.2-2425.8-2055.2-2375.2C-2055.2-2375.2-2055.2-2375.2-2055.2-2375.2z"/>
	</g>
</g>
<g>
	<g>
		<path d="M-1790.1-2070.6l12.9-5.5c31.1-13.3,52.2-43.6,52.3-77.5c0-0.4,0-0.8,0-1.3c-0.1-33.9-21.2-64.1-52.3-77.5l-12.9-5.5
			c0,0,0,0,0,0C-1755.1-2187.3-1755.1-2121.1-1790.1-2070.6C-1790.1-2070.6-1790.1-2070.6-1790.1-2070.6z"/>
	</g>
	<g>
		<path d="M-1687.2-2070.6l12.9-5.5c31.1-13.3,52.2-43.6,52.3-77.5c0-0.4,0-0.8,0-1.3c-0.1-33.9-21.2-64.1-52.3-77.5l-12.9-5.5
			c0,0,0,0,0,0C-1652.2-2187.3-1652.2-2121.1-1687.2-2070.6C-1687.2-2070.6-1687.2-2070.6-1687.2-2070.6z"/>
	</g>
	<g>
		<path d="M-1738.6-2070.6l12.9-5.5c31.1-13.3,52.2-43.6,52.3-77.5c0-0.4,0-0.8,0-1.3c-0.1-33.9-21.2-64.1-52.3-77.5l-12.9-5.5
			c0,0,0,0,0,0C-1703.6-2187.3-1703.6-2121.1-1738.6-2070.6C-1738.6-2070.6-1738.6-2070.6-1738.6-2070.6z"/>
	</g>
</g>
<g>
	<g>
		<polygon points="-1816.9,-2816 -1773,-2750.2 -1816.9,-2684.4 -1773,-2684.4 -1729.2,-2750.2 -1773,-2816 		"/>
	</g>
	<g>
		<polygon points="-1751.1,-2816 -1707.2,-2750.2 -1751.1,-2684.4 -1707.2,-2684.4 -1663.4,-2750.2 -1707.2,-2816 		"/>
	</g>
</g>
<g>
	<path d="M-2737.5-1613l25.4,38.1c2.4,3.6,2.4,8.2,0,11.7l-25.4,38.1c-9.5,14.3,0.7,33.3,17.8,33.3l0,0c7.2,0,13.9-3.6,17.8-9.5
		l33.6-50.4c7-10.5,7-24.3,0-34.8l-33.6-50.4c-4-6-10.7-9.5-17.8-9.5l0,0C-2736.8-1646.3-2747-1627.2-2737.5-1613z"/>
</g>
<g>
	<path d="M-2664.2-1613l25.4,38.1c2.4,3.6,2.4,8.2,0,11.7l-25.4,38.1c-9.5,14.3,0.7,33.3,17.8,33.3l0,0c7.2,0,13.9-3.6,17.8-9.5
		l33.6-50.4c7-10.5,7-24.3,0-34.8l-33.6-50.4c-4-6-10.7-9.5-17.8-9.5l0,0C-2663.4-1646.3-2673.7-1627.2-2664.2-1613z"/>
</g>
<g>
	<g>
		<polygon points="-1230.8,-3136 -1186.9,-3070.2 -1230.8,-3004.4 -1186.9,-3004.4 -1143.1,-3070.2 -1186.9,-3136 		"/>
	</g>
	<g>
		<polygon points="-1167.2,-3136 -1123.3,-3070.2 -1167.2,-3004.4 -1123.3,-3004.4 -1079.5,-3070.2 -1123.3,-3136 		"/>
	</g>
	<g>
		<polygon points="-1103.6,-3136 -1059.7,-3070.2 -1103.6,-3004.4 -1059.7,-3004.4 -1015.9,-3070.2 -1059.7,-3136 		"/>
	</g>
</g>
<g>
	<g>
		<polygon points="-2824,-2220 -2780.1,-2154.2 -2824,-2088.4 -2711.9,-2088.4 -2668,-2154.2 -2711.9,-2220 		"/>
	</g>
	<g>
		<polygon points="-2692.2,-2220 -2648.3,-2154.2 -2692.2,-2088.4 -2614.2,-2088.4 -2570.3,-2154.2 -2614.2,-2220 		"/>
	</g>
	<g>
		<polygon points="-2594.5,-2220 -2550.6,-2154.2 -2594.5,-2088.4 -2550.6,-2088.4 -2506.7,-2154.2 -2550.6,-2220 		"/>
	</g>
</g>
<g>
	<g>
		<rect x="-1532.3" y="-2762.1" width="184.2" height="23.9"/>
	</g>
	<g>
		<polygon points="-1401,-2680.3 -1417.9,-2697.2 -1364.9,-2750.2 -1417.9,-2803.1 -1401,-2820 -1331.2,-2750.2 		"/>
	</g>
</g>
<g>
	<path d="M-1548-1503.2l153.5-65.8l-153.5-65.8l0,0c10.3,15.5,16.6,32.8,18.9,50.6l-94.1-5.2v20.5v20.5l94.1-5.2
		C-1531.4-1536-1537.6-1518.7-1548-1503.2L-1548-1503.2z"/>
</g>
<g>
	<g>
		<rect x="-1521.8" y="-3089" width="153.5" height="37.5"/>
	</g>
	<g>
		<polygon points="-1416.4,-2995.6 -1442.9,-3022.1 -1394.8,-3070.2 -1442.9,-3118.4 -1416.4,-3144.9 -1341.7,-3070.2 		"/>
	</g>
</g>
<g>
	<path d="M-1782.9-1578.9l-46.2-46.2c-7-7-18.4-7-25.4,0l0,0c-7,7-7,18.4,0,25.4l15.4,15.4h-154c-9.9,0-18,8.1-18,18v0
		c0,9.9,8.1,18,18,18h154l-15.4,15.4c-7,7-7,18.4,0,25.4c7,7,18.4,7,25.4,0l46.2-46.2C-1775.9-1560.5-1775.9-1571.9-1782.9-1578.9z"
		/>
</g>
<g>
	<path d="M-2326.3-2372.1l-38.6-38.6l20.8-20.8h-130.3v-54.6h130.3l-20.8-20.8l38.6-38.6l86.7,86.7L-2326.3-2372.1z M-2340.8-2410.7
		l14.5,14.5l62.6-62.6l-62.6-62.6l-14.5,14.5l37.9,37.9h-154.4v20.5h154.4L-2340.8-2410.7z"/>
</g>
<g>
	<g>
		<polygon points="-1145.6,-2671.9 -1179.3,-2705.7 -1134.8,-2750.2 -1179.3,-2794.7 -1145.6,-2828.5 -1067.3,-2750.2 		"/>
	</g>
</g>
<g>
	<g>
		<polygon points="-2691.6,-2366.5 -2731.5,-2406.3 -2678.9,-2458.9 -2731.5,-2511.4 -2691.6,-2551.3 -2599.2,-2458.9 		"/>
	</g>
</g>
<g>
	<g>
		<g>
			<g>
				<path d="M-1471.7-2086.5l-36.1-36.1l31.6-31.6l-31.6-31.6l36.1-36.1l67.7,67.7L-1471.7-2086.5z M-1483.6-2122.6l11.9,11.9
					l43.6-43.6l-43.6-43.6l-11.9,11.9l31.6,31.6L-1483.6-2122.6z"/>
			</g>
		</g>
	</g>
	<g>
		<g>
			<g>
				<path d="M-1423.4-2086.5l-36.1-36.1l31.6-31.6l-31.6-31.6l36.1-36.1l67.7,67.7L-1423.4-2086.5z M-1435.4-2122.6l11.9,11.9
					l43.6-43.6l-43.6-43.6l-11.9,11.9l31.6,31.6L-1435.4-2122.6z"/>
			</g>
		</g>
	</g>
</g>
<g>
	<g>
		<g>
			<g>
				<path d="M-2386.9-2086.5l-36.1-36.1l31.6-31.6l-31.6-31.6l36.1-36.1l67.7,67.7L-2386.9-2086.5z M-2398.9-2122.6l11.9,11.9
					l43.6-43.6l-43.6-43.6l-11.9,11.9l31.6,31.6L-2398.9-2122.6z"/>
			</g>
		</g>
	</g>
	<g>
		<g>
			<g>
				<path d="M-2338.7-2086.5l-36.1-36.1l31.6-31.6l-31.6-31.6l36.1-36.1l67.7,67.7L-2338.7-2086.5z M-2350.6-2122.6l11.9,11.9
					l43.6-43.6l-43.6-43.6l-11.9,11.9l31.6,31.6L-2350.6-2122.6z"/>
			</g>
		</g>
	</g>
	<g>
		<g>
			<g>
				<path d="M-2290.4-2086.5l-36.1-36.1l31.6-31.6l-31.6-31.6l36.1-36.1l67.7,67.7L-2290.4-2086.5z M-2302.3-2122.6l11.9,11.9
					l43.6-43.6l-43.6-43.6l-11.9,11.9l31.6,31.6L-2302.3-2122.6z"/>
			</g>
		</g>
	</g>
</g>
<g>
	<g>
		<g>
			<path d="M-1388.8-2450.3h-85.8c-4.7,0-8.5-3.8-8.5-8.5c0-4.7,3.8-8.5,8.5-8.5h85.8c4.7,0,8.5,3.8,8.5,8.5
				C-1380.3-2454.1-1384.1-2450.3-1388.8-2450.3z"/>
		</g>
		<g>
			<path d="M-1417.4-2421.7c-2.2,0-4.4-0.8-6-2.5c-3.3-3.3-3.3-8.7,0-12.1l22.6-22.6l-22.6-22.6c-3.3-3.3-3.3-8.7,0-12.1
				c3.3-3.3,8.7-3.3,12.1,0l28.6,28.6c3.3,3.3,3.3,8.7,0,12.1l-28.6,28.6C-1413.1-2422.6-1415.2-2421.7-1417.4-2421.7z"/>
		</g>
	</g>
	<g>
		<path d="M-1431.7-2362.6c-53.1,0-96.3-43.2-96.3-96.3c0-53.1,43.2-96.3,96.3-96.3c53.1,0,96.3,43.2,96.3,96.3
			C-1335.5-2405.8-1378.7-2362.6-1431.7-2362.6z M-1431.7-2538c-43.7,0-79.2,35.5-79.2,79.2c0,43.7,35.5,79.2,79.2,79.2
			c43.7,0,79.2-35.5,79.2-79.2C-1352.5-2502.5-1388.1-2538-1431.7-2538z"/>
	</g>
</g>
<g>
	<g>
		<path d="M-2044.6-2123.1v-62.1c0-14.1,16.1-22.2,27.4-13.7l41.4,31.1c9.1,6.9,9.1,20.6,0,27.4l-41.4,31.1
			C-2028.4-2100.9-2044.6-2109-2044.6-2123.1z"/>
	</g>
	<g>
		<path d="M-2014.4-2057.9c-53.1,0-96.3-43.2-96.3-96.3c0-53.1,43.2-96.3,96.3-96.3c53.1,0,96.3,43.2,96.3,96.3
			C-1918.2-2101.1-1961.4-2057.9-2014.4-2057.9z M-2014.4-2233.4c-43.7,0-79.2,35.5-79.2,79.2c0,43.7,35.5,79.2,79.2,79.2
			c43.7,0,79.2-35.5,79.2-79.2C-1935.2-2197.9-1970.8-2233.4-2014.4-2233.4z"/>
	</g>
</g>
<g>
	<g>
		<path d="M-2235.7-1577.6l-35.7-26.8c-7.1-5.3-17.2-0.3-17.2,8.6l0,0c0,5.9-4.8,10.7-10.7,10.7h-51.4c-5.9,0-10.7,4.8-10.7,10.7
			v10.7c0,5.9,4.8,10.7,10.7,10.7h51.4c5.9,0,10.7,4.8,10.7,10.7l0,0c0,8.8,10.1,13.9,17.2,8.6l35.7-26.8
			C-2230-1564.7-2230-1573.3-2235.7-1577.6z"/>
	</g>
	<g>
		<path d="M-2279.8-1474.2c-52.3,0-94.8-42.5-94.8-94.8c0-52.3,42.5-94.8,94.8-94.8c52.3,0,94.8,42.5,94.8,94.8
			C-2185-1516.7-2227.6-1474.2-2279.8-1474.2z M-2279.8-1642.2c-40.4,0-73.3,32.9-73.3,73.3c0,40.4,32.9,73.3,73.3,73.3
			c40.4,0,73.3-32.9,73.3-73.3C-2206.6-1609.4-2239.4-1642.2-2279.8-1642.2z"/>
	</g>
</g>
<g>
	<polygon points="-2201,-3070.2 -2304.2,-3147.6 -2304.2,-3102.4 -2444.6,-3124.7 -2444.6,-3015.8 -2304.2,-3038.1 -2304.2,-2992.9 
			"/>
</g>
<g>
	<g>
		<g>
			<path d="M-1195.2-1560.4h-85.8c-4.7,0-8.5-3.8-8.5-8.5c0-4.7,3.8-8.5,8.5-8.5h85.8c4.7,0,8.5,3.8,8.5,8.5
				C-1186.7-1564.3-1190.5-1560.4-1195.2-1560.4z"/>
		</g>
		<g>
			<path d="M-1223.8-1531.9c-2.2,0-4.4-0.8-6-2.5c-3.3-3.3-3.3-8.7,0-12.1l22.6-22.6l-22.6-22.6c-3.3-3.3-3.3-8.7,0-12.1
				c3.3-3.3,8.7-3.3,12.1,0l28.6,28.6c3.3,3.3,3.3,8.7,0,12.1l-28.6,28.6C-1219.4-1532.7-1221.6-1531.9-1223.8-1531.9z"/>
		</g>
	</g>
	<g>
		<g>
			<path d="M-1080.4-1560.4h-85.8c-4.7,0-8.5-3.8-8.5-8.5c0-4.7,3.8-8.5,8.5-8.5h85.8c4.7,0,8.5,3.8,8.5,8.5
				C-1071.9-1564.3-1075.7-1560.4-1080.4-1560.4z"/>
		</g>
		<g>
			<path d="M-1109-1531.9c-2.2,0-4.4-0.8-6-2.5c-3.3-3.3-3.3-8.7,0-12.1l22.6-22.6l-22.6-22.6c-3.3-3.3-3.3-8.7,0-12.1
				c3.3-3.3,8.7-3.3,12.1,0l28.6,28.6c3.3,3.3,3.3,8.7,0,12.1l-28.6,28.6C-1104.7-1532.7-1106.8-1531.9-1109-1531.9z"/>
		</g>
	</g>
	<g>
		<g>
			<path d="M-965.6-1560.4h-85.8c-4.7,0-8.5-3.8-8.5-8.5c0-4.7,3.8-8.5,8.5-8.5h85.8c4.7,0,8.5,3.8,8.5,8.5
				C-957.1-1564.3-960.9-1560.4-965.6-1560.4z"/>
		</g>
		<g>
			<path d="M-994.2-1531.9c-2.2,0-4.4-0.8-6-2.5c-3.3-3.3-3.3-8.7,0-12.1l22.6-22.6l-22.6-22.6c-3.3-3.3-3.3-8.7,0-12.1
				c3.3-3.3,8.7-3.3,12.1,0l28.6,28.6c3.3,3.3,3.3,8.7,0,12.1l-28.6,28.6C-989.9-1532.7-992-1531.9-994.2-1531.9z"/>
		</g>
	</g>
</g>
</svg>
